<svg width="17" height="20" viewBox="0 0 17 20" fill="none" xmlns="http://www.w3.org/2000/svg">
<path d="M15.1786 0H1.82143C0.85 0 0 0.875 0 1.875V18.125C0 19.125 0.85 20 1.82143 20H15.1786C16.15 20 17 19.125 17 18.125V1.875C17 0.875 16.15 0 15.1786 0ZM4.85714 17C4.85714 17.25 4.61429 17.5 4.37143 17.5H2.91429C2.67143 17.5 2.42857 17.25 2.42857 17V15.5C2.42857 15.25 2.67143 15 2.91429 15H4.37143C4.61429 15 4.85714 15.25 4.85714 15.5V17ZM4.85714 12C4.85714 12.25 4.61429 12.5 4.37143 12.5H2.91429C2.67143 12.5 2.42857 12.25 2.42857 12V10.5C2.42857 10.25 2.67143 10 2.91429 10H4.37143C4.61429 10 4.85714 10.25 4.85714 10.5V12ZM9.71429 17C9.71429 17.25 9.47143 17.5 9.22857 17.5H7.77143C7.52857 17.5 7.28571 17.25 7.28571 17V15.5C7.28571 15.25 7.52857 15 7.77143 15H9.22857C9.47143 15 9.71429 15.25 9.71429 15.5V17ZM9.71429 12C9.71429 12.25 9.47143 12.5 9.22857 12.5H7.77143C7.52857 12.5 7.28571 12.25 7.28571 12V10.5C7.28571 10.25 7.52857 10 7.77143 10H9.22857C9.47143 10 9.71429 10.25 9.71429 10.5V12ZM14.5714 17C14.5714 17.25 14.3286 17.5 14.0857 17.5H12.6286C12.3857 17.5 12.1429 17.25 12.1429 17V10.5C12.1429 10.25 12.3857 10 12.6286 10H14.0857C14.3286 10 14.5714 10.25 14.5714 10.5V17ZM14.5714 7C14.5714 7.25 14.3286 7.5 14.0857 7.5H2.91429C2.67143 7.5 2.42857 7.25 2.42857 7V3C2.42857 2.75 2.67143 2.5 2.91429 2.5H14.0857C14.3286 2.5 14.5714 2.75 14.5714 3V7Z" fill="white"/>
</svg>
