<svg width="32" height="32" viewBox="0 0 32 32" fill="none" xmlns="http://www.w3.org/2000/svg">
<path d="M31.1225 9.98494C31.0501 8.34251 30.7845 7.21336 30.404 6.23493C30.0115 5.19635 29.4077 4.26651 28.6165 3.49354C27.8436 2.70853 26.9076 2.09854 25.881 1.71217C24.8969 1.3317 23.7737 1.0661 22.1313 0.993683C20.4766 0.915135 19.9513 0.896973 15.7545 0.896973C11.5577 0.896973 11.0324 0.915135 9.38386 0.98755C7.74143 1.05997 6.61228 1.3258 5.63409 1.70604C4.59527 2.09854 3.66544 2.70239 2.89246 3.49354C2.10745 4.26651 1.4977 5.20248 1.1111 6.22903C0.730624 7.21336 0.465024 8.33638 0.392609 9.97881C0.314061 11.6335 0.295898 12.1588 0.295898 16.3556C0.295898 20.5523 0.314061 21.0777 0.386476 22.7262C0.458891 24.3686 0.724727 25.4978 1.1052 26.4762C1.4977 27.5148 2.10745 28.4446 2.89246 29.2176C3.66544 30.0026 4.60141 30.6126 5.62795 30.999C6.61228 31.3795 7.7353 31.6451 9.37797 31.7175C11.0263 31.7901 11.5518 31.808 15.7486 31.808C19.9454 31.808 20.4707 31.7901 22.1192 31.7175C23.7617 31.6451 24.8908 31.3795 25.869 30.999C27.9464 30.1958 29.5888 28.5534 30.392 26.4762C30.7722 25.4919 31.0381 24.3686 31.1105 22.7262C31.1829 21.0777 31.2011 20.5523 31.2011 16.3556C31.2011 12.1588 31.1949 11.6335 31.1225 9.98494ZM28.3389 22.6054C28.2724 24.1151 28.0188 24.9303 27.8075 25.4737C27.2881 26.8204 26.2193 27.8891 24.8727 28.4086C24.3292 28.6199 23.5081 28.8735 22.0044 28.9398C20.374 29.0124 19.885 29.0303 15.7606 29.0303C11.6363 29.0303 11.1412 29.0124 9.51666 28.9398C8.00703 28.8735 7.19183 28.6199 6.64837 28.4086C5.97823 28.1609 5.36825 27.7684 4.87314 27.2551C4.35987 26.7539 3.96736 26.15 3.71969 25.4799C3.50834 24.9364 3.25477 24.1151 3.18849 22.6116C3.11584 20.9812 3.09791 20.492 3.09791 16.3676C3.09791 12.2433 3.11584 11.7481 3.18849 10.1239C3.25477 8.61424 3.50834 7.79905 3.71969 7.25558C3.96736 6.58521 4.35987 5.97546 4.87927 5.48011C5.38028 4.96684 5.98413 4.57434 6.6545 4.3269C7.19797 4.11555 8.0193 3.86198 9.5228 3.79546C11.1532 3.72305 11.6424 3.70488 15.7665 3.70488C19.897 3.70488 20.386 3.72305 22.0105 3.79546C23.5201 3.86198 24.3353 4.11555 24.8788 4.3269C25.5489 4.57434 26.1589 4.96684 26.654 5.48011C27.1673 5.98136 27.5598 6.58521 27.8075 7.25558C28.0188 7.79905 28.2724 8.62014 28.3389 10.1239C28.4113 11.7543 28.4295 12.2433 28.4295 16.3676C28.4295 20.492 28.4113 20.975 28.3389 22.6054Z" fill="white"/>
<path d="M15.7544 8.41504C11.3705 8.41504 7.81372 11.9716 7.81372 16.3557C7.81372 20.7397 11.3705 24.2963 15.7544 24.2963C20.1384 24.2963 23.695 20.7397 23.695 16.3557C23.695 11.9716 20.1384 8.41504 15.7544 8.41504ZM15.7544 21.5066C12.9104 21.5066 10.6035 19.1999 10.6035 16.3557C10.6035 13.5115 12.9104 11.2048 15.7544 11.2048C18.5986 11.2048 20.9053 13.5115 20.9053 16.3557C20.9053 19.1999 18.5986 21.5066 15.7544 21.5066Z" fill="white"/>
<path d="M25.8628 8.10085C25.8628 9.12457 25.0328 9.95463 24.0088 9.95463C22.9851 9.95463 22.155 9.12457 22.155 8.10085C22.155 7.0769 22.9851 6.24707 24.0088 6.24707C25.0328 6.24707 25.8628 7.0769 25.8628 8.10085Z" fill="white"/>
</svg>
