<svg width="45" height="28" viewBox="0 0 45 28" fill="none" xmlns="http://www.w3.org/2000/svg">
<path d="M22.4153 27.3388C28.8234 27.3388 26.5385 23.3722 27.0331 22.2316C27.0258 21.3798 27.0184 20.5605 27.0479 20.0624C27.4539 20.1743 28.4118 20.6489 30.3904 22.5294C33.4449 25.5431 34.2256 27.3388 36.6932 27.3388H41.2354C42.675 27.3388 43.4243 26.7559 43.799 26.2668C44.1607 25.794 44.5151 24.9639 44.1275 23.6717C43.1142 20.5605 37.2045 15.1881 36.8372 14.6214C36.8926 14.5167 36.9812 14.3778 37.0273 14.3056H37.0236C38.19 12.7987 42.6417 6.27672 43.2969 3.6672C43.2988 3.66359 43.3006 3.65817 43.3006 3.65276C43.655 2.46169 43.3302 1.6893 42.9943 1.25258C42.4886 0.599294 41.6839 0.269043 40.5968 0.269043H36.0546C34.5338 0.269043 33.3803 1.01797 32.7971 2.38409C31.8207 4.81134 29.0781 9.803 27.0221 11.5698C26.9593 9.06671 27.0018 7.15558 27.035 5.73532C27.1014 2.96519 27.3155 0.269043 24.3754 0.269043H17.2365C15.3945 0.269043 13.6319 2.23611 15.5403 4.57133C17.2088 6.6178 16.1402 7.75834 16.5 13.4358C15.0974 11.965 12.6021 7.99294 10.8376 2.91646C10.343 1.54313 9.59365 0.270847 7.48408 0.270847H2.94196C1.1 0.270847 0 1.25258 0 2.89661C0 6.58892 8.35892 27.3388 22.4153 27.3388ZM7.48408 2.97782C7.88459 2.97782 7.92519 2.97782 8.22234 3.80255C10.0292 9.00535 14.0823 16.704 17.0427 16.704C19.2667 16.704 19.2667 14.4752 19.2667 13.6361L19.2648 6.95527C19.143 4.74457 18.3199 3.64374 17.7791 2.97602L24.2536 2.98324C24.2573 3.01391 24.2167 10.3733 24.2721 12.1563C24.2721 14.6882 26.3281 16.1391 29.5377 12.9629C32.9244 9.22552 35.2666 3.63832 35.3607 3.41094C35.4991 3.0861 35.6191 2.97602 36.0546 2.97602H40.5968H40.6152C40.6134 2.98143 40.6134 2.98684 40.6115 2.99226C40.1963 4.88714 36.0971 10.9255 34.7258 12.8005C34.7036 12.8294 34.6833 12.8601 34.663 12.8908C34.0595 13.8544 33.5686 14.9192 34.7461 16.417H34.7479C34.855 16.5434 35.1337 16.8393 35.5397 17.2508C36.8021 18.5249 41.132 22.8813 41.5159 24.6138C41.2612 24.6535 40.9844 24.6246 36.6932 24.6336C35.7796 24.6336 35.0654 23.2982 32.3394 20.6092C29.8883 18.2776 28.2974 17.3248 26.8486 17.3248C24.0358 17.3248 24.2407 19.5571 24.2665 22.2569C24.2757 25.184 24.2573 24.2582 24.2776 24.4423C24.1133 24.5055 23.6427 24.6318 22.4153 24.6318C10.7047 24.6318 3.07853 6.45718 2.78508 2.98324C2.88659 2.97421 4.28374 2.97963 7.48408 2.97782Z" fill="white"/>
</svg>
