<svg width="35" height="35" viewBox="0 0 35 35" fill="none" xmlns="http://www.w3.org/2000/svg">
<g clip-path="url(#clip0)">
<path d="M34.688 25.3273C34.594 25.1698 34.0121 23.9053 31.2119 21.3063C28.2804 18.5849 28.6742 19.0268 32.2051 14.3211C34.3555 11.4553 35.2153 9.70517 34.9462 8.95699C34.6902 8.24381 33.1086 8.43195 33.1086 8.43195L27.8494 8.46258C27.8494 8.46258 27.46 8.41008 27.1691 8.5829C26.8869 8.75354 26.7053 9.14732 26.7053 9.14732C26.7053 9.14732 25.8718 11.3656 24.7604 13.2514C22.4175 17.2307 21.479 17.4407 21.0961 17.1935C20.2057 16.6182 20.4289 14.879 20.4289 13.6452C20.4289 9.7883 21.013 8.18037 19.2891 7.76472C18.7159 7.62689 18.2959 7.53501 16.8324 7.5197C14.9553 7.50001 13.3649 7.52626 12.4658 7.96598C11.8664 8.25913 11.4048 8.91324 11.687 8.95043C12.0348 8.99637 12.8224 9.16263 13.2402 9.73142C13.7806 10.4643 13.7609 12.1138 13.7609 12.1138C13.7609 12.1138 14.0715 16.6532 13.0368 17.2176C12.3258 17.6048 11.3523 16.8151 9.26305 13.2032C8.19328 11.3547 7.38385 9.30921 7.38385 9.30921C7.38385 9.30921 7.22852 8.92855 6.95069 8.7251C6.61379 8.47789 6.14125 8.39914 6.14125 8.39914L1.14026 8.42977C1.14026 8.42977 0.389892 8.45164 0.114247 8.7776C-0.130771 9.06856 0.0945578 9.66798 0.0945578 9.66798C0.0945578 9.66798 4.01047 18.8277 8.44267 23.4459C12.5095 27.679 17.1255 27.4012 17.1255 27.4012H19.2169C19.2169 27.4012 19.8491 27.3312 20.1707 26.9833C20.4683 26.6639 20.4573 26.0645 20.4573 26.0645C20.4573 26.0645 20.4157 23.2577 21.7196 22.8443C23.0038 22.4374 24.6532 25.557 26.4012 26.758C27.7225 27.6659 28.7267 27.4668 28.7267 27.4668L33.4017 27.4012C33.4017 27.4012 35.8475 27.2502 34.688 25.3273Z" fill="black"/>
</g>
<defs>
<clipPath id="clip0">
<rect width="35" height="35" fill="white"/>
</clipPath>
</defs>
</svg>
