<svg width="33" height="33" viewBox="0 0 33 33" fill="none" xmlns="http://www.w3.org/2000/svg">
<path fill-rule="evenodd" clip-rule="evenodd" d="M27.3224 5.44659C24.462 2.58288 20.658 1.0051 16.6054 1.00342C8.25463 1.00342 1.45832 7.79954 1.45496 16.1526C1.45384 18.8227 2.15139 21.4293 3.47725 23.7268L1.32788 31.5775L9.35936 29.4707C11.5724 30.6779 14.0638 31.314 16.5992 31.3148H16.6056C24.9554 31.3148 31.7525 24.5181 31.7557 16.1647C31.7573 12.1164 30.1829 8.31011 27.3224 5.44659ZM16.6054 28.7561H16.6002C14.3407 28.7552 12.1247 28.148 10.1911 27.0009L9.73146 26.7279L4.96546 27.9782L6.23757 23.3314L5.93807 22.855C4.67752 20.8501 4.01188 18.5328 4.013 16.1535C4.01562 9.21068 9.66465 3.56221 16.6104 3.56221C19.9739 3.56333 23.1356 4.87482 25.513 7.25502C27.8904 9.63522 29.1989 12.799 29.1978 16.1637C29.1948 23.1071 23.5462 28.7561 16.6054 28.7561ZM23.5126 19.3251C23.1341 19.1355 21.2729 18.22 20.9258 18.0935C20.5791 17.9671 20.3264 17.9043 20.0743 18.2831C19.8218 18.6619 19.0965 19.5147 18.8755 19.7672C18.6546 20.0198 18.434 20.0516 18.0554 19.862C17.6767 19.6726 16.457 19.2727 15.011 17.983C13.8858 16.9792 13.1261 15.7396 12.9051 15.3608C12.6846 14.9816 12.9033 14.7965 13.0712 14.5882C13.481 14.0793 13.8914 13.5458 14.0175 13.2933C14.1438 13.0407 14.0806 12.8195 13.9858 12.6301C13.8914 12.4407 13.1343 10.5774 12.8189 9.81922C12.5114 9.08136 12.1996 9.18101 11.967 9.16944C11.7465 9.15843 11.494 9.15619 11.2415 9.15619C10.9892 9.15619 10.579 9.25081 10.2319 9.63C9.88504 10.009 8.90721 10.9247 8.90721 12.788C8.90721 14.6513 10.2637 16.4513 10.4529 16.704C10.6421 16.9567 13.1223 20.7803 16.9197 22.4198C17.8228 22.8102 18.5279 23.0429 19.0778 23.2174C19.9847 23.5055 20.8097 23.4648 21.4621 23.3674C22.1895 23.2586 23.7016 22.4516 24.0173 21.5674C24.3327 20.6831 24.3327 19.9252 24.2379 19.7672C24.1435 19.6093 23.891 19.5147 23.5126 19.3251Z" fill="white"/>
</svg>
