<svg width="68" height="38" viewBox="0 0 68 38" fill="none" xmlns="http://www.w3.org/2000/svg">
<g clip-path="url(#clip0)">
<path d="M64.3 0H38.8C36.9 0 35 0.3 33.3 1.2C32 1.8 30.6 2.2 29.1 2.2H27.2C26.6 2.2 26.1 1.7 26.1 1.1V0H23.6L15.6 4.6C6 10.1 0 20.4 0 31.6V32.7V34C0 35.7 1.4 37.1 3.1 37.1H6H28.4V36.4C28.4 29.4 33.8 23.3 40.8 23C48.3 22.6 54.5 28.6 54.5 36.1V37.2H64.3C66.1 37.2 67.6 35.7 67.6 33.9V3.3C67.6 1.5 66.1 0 64.3 0ZM41.4 20.7C33.3 20.7 26.7 27 26.2 34.9H24C24.6 25.8 32.1 18.5 41.4 18.5C50.7 18.5 58.2 25.7 58.8 34.9H56.6C56.1 27 49.5 20.7 41.4 20.7ZM2.2 34.9C0.2 27.7 5.5 11.7 16.8 6.5L24.2 2.3C24.7 3.5 25.9 4.4 27.3 4.4H29.2C31 4.4 32.7 4 34.3 3.2C35.6 2.6 37 2.2 38.4 2.2H64.3C64.9 2.2 65.4 2.7 65.4 3.3V33.8C65.4 34.4 64.9 34.9 64.3 34.9H61C60.4 24.6 51.9 16.4 41.4 16.4C31.6 16.4 23.5 25.5 22.1 34.9" fill="black"/>
<path d="M22.7714 14.3387L21.4614 13.2551L13.9401 22.3482L15.2501 23.4318L22.7714 14.3387Z" fill="black"/>
<path d="M22.4746 22.6708L23.4956 21.3115L14.0603 14.2244L13.0393 15.5838L22.4746 22.6708Z" fill="black"/>
</g>
<defs>
<clipPath id="clip0">
<rect width="67.6" height="37.1" fill="white"/>
</clipPath>
</defs>
</svg>
