<svg width="76" height="36" viewBox="0 0 76 36" fill="none" xmlns="http://www.w3.org/2000/svg">
<path d="M67.5439 32.1428C69.2351 32.1428 70.6092 33.5356 70.6092 35.2499C70.6092 35.6785 70.9263 35.9999 71.3492 35.9999C71.772 35.9999 72.0891 35.6785 72.0891 35.2499C72.0891 33.5356 73.4632 32.1428 75.1544 32.1428C75.5772 32.1428 75.8944 31.8214 75.8944 31.3928C75.8944 30.9642 75.5772 30.6428 75.1544 30.6428C73.4632 30.6428 72.0891 29.2499 72.0891 27.5356C72.0891 27.1071 71.772 26.7856 71.3492 26.7856C70.9263 26.7856 70.6092 27.1071 70.6092 27.5356C70.6092 29.2499 69.2351 30.6428 67.5439 30.6428C67.1211 30.6428 66.804 30.9642 66.804 31.3928C66.804 31.8214 67.1211 32.1428 67.5439 32.1428ZM71.3492 30.1071C71.6663 30.6428 72.0891 31.0714 72.6176 31.3928C72.0891 31.7142 71.6663 32.1428 71.3492 32.6785C71.032 32.1428 70.6092 31.7142 70.0807 31.3928C70.6092 31.0714 71.032 30.5356 71.3492 30.1071Z" fill="black"/>
<path d="M69.8693 19.0714C69.2351 19.0714 68.8122 18.5357 68.8122 18C68.8122 9.32143 61.8359 2.25 53.274 2.25C49.363 2.25 45.5577 3.75 42.7038 6.42857C42.281 6.85714 41.541 6.85714 41.1182 6.32143C40.6954 5.78571 40.6954 5.14286 41.2239 4.71429C44.5007 1.71429 48.7288 0 53.274 0C63.1043 0 71.032 8.03571 71.032 18C70.9263 18.6429 70.5035 19.0714 69.8693 19.0714Z" fill="black"/>
<path d="M53.2741 36.0001C48.8346 36.0001 44.5008 34.2858 41.224 31.1787C40.8012 30.7501 40.6955 30.0001 41.1183 29.5715C41.5411 29.143 42.281 29.0358 42.7038 29.4644C45.5578 32.143 49.3631 33.643 53.2741 33.643C61.8359 33.643 68.8123 26.5715 68.8123 17.893C68.8123 17.2501 69.3408 16.8215 69.8693 16.8215C70.5035 16.8215 70.9263 17.3572 70.9263 17.893C70.9263 27.8572 62.9987 36.0001 53.2741 36.0001Z" fill="black"/>
<path d="M53.2741 29.25C52.6399 29.25 52.217 28.7143 52.217 28.1786C52.217 27.5357 52.7456 27.1072 53.2741 27.1072C58.1364 27.1072 62.1531 23.0357 62.1531 18.1072C62.1531 13.1786 58.1364 9.00003 53.2741 9.00003C52.6399 9.00003 52.217 8.46432 52.217 7.92861C52.217 7.39289 52.7456 6.85718 53.2741 6.85718C59.4048 6.85718 64.3728 11.8929 64.3728 18.1072C64.3728 24.3215 59.2991 29.25 53.2741 29.25Z" fill="black"/>
<path d="M53.2741 24.7501C52.6399 24.7501 52.217 24.2144 52.217 23.6786C52.217 23.0358 52.7456 22.6072 53.2741 22.6072C55.7052 22.6072 57.7136 20.5715 57.7136 18.1072C57.7136 15.6429 55.7052 13.6072 53.2741 13.6072C52.6399 13.6072 52.217 13.0715 52.217 12.5358C52.217 12.0001 52.7456 11.4644 53.2741 11.4644C56.9736 11.4644 59.9333 14.4644 59.9333 18.2144C59.9333 21.9644 56.8679 24.7501 53.2741 24.7501Z" fill="black"/>
<path d="M53.274 9.00003H45.452C44.8178 9.00003 44.395 8.46432 44.395 7.92861C44.395 7.39289 44.9235 6.85718 45.452 6.85718H53.1683C53.8025 6.85718 54.2253 7.39289 54.2253 7.92861C54.2253 8.46432 53.8025 9.00003 53.274 9.00003Z" fill="black"/>
<path d="M53.274 29.25H45.452C44.8178 29.25 44.395 28.7143 44.395 28.1786C44.395 27.6429 44.9235 27.1072 45.452 27.1072H53.1683C53.8025 27.1072 54.2253 27.6429 54.2253 28.1786C54.2253 28.7143 53.8025 29.25 53.274 29.25Z" fill="black"/>
<path d="M53.2741 29.25C52.6399 29.25 52.217 28.7143 52.217 28.1786V23.5714C52.217 22.9286 52.7456 22.5 53.2741 22.5C53.9083 22.5 54.3311 23.0357 54.3311 23.5714V28.0714C54.3311 28.7143 53.8026 29.25 53.2741 29.25Z" fill="black"/>
<path d="M53.2741 13.5C52.6399 13.5 52.217 12.9643 52.217 12.4286V7.82143C52.217 7.17857 52.7456 6.75 53.2741 6.75C53.9083 6.75 54.3311 7.28571 54.3311 7.82143V12.3214C54.3311 12.9643 53.8026 13.5 53.2741 13.5Z" fill="black"/>
<path d="M32.1334 11.25C31.4992 11.25 31.0764 10.7143 31.0764 10.1786C31.0764 8.35714 32.5562 6.75 34.4589 6.75C35.0931 6.75 35.5159 7.28571 35.5159 7.82143C35.5159 8.35714 34.9874 8.89286 34.4589 8.89286C33.8247 8.89286 33.2962 9.42857 33.2962 10.0714C33.2962 10.7143 32.7677 11.25 32.1334 11.25Z" fill="black"/>
<path d="M9.93593 13.5C9.30172 13.5 8.87891 12.9643 8.87891 12.4286C8.87891 10.6071 10.3587 9 12.2614 9C12.8956 9 13.3184 9.53571 13.3184 10.0714C13.3184 10.7143 12.7899 11.1429 12.2614 11.1429C11.6272 11.1429 11.0987 11.6786 11.0987 12.3214C11.0987 12.9643 10.5701 13.5 9.93593 13.5Z" fill="black"/>
<path d="M34.3532 29.25C32.5562 29.25 31.0764 27.75 31.0764 25.9286C31.0764 25.2857 31.6049 24.8572 32.1334 24.8572C32.7677 24.8572 33.1905 25.3929 33.1905 25.9286C33.1905 26.5715 33.719 27 34.2475 27C34.8817 27 35.3045 27.5357 35.3045 28.0715C35.5159 28.7143 34.9874 29.25 34.3532 29.25Z" fill="black"/>
<path d="M12.1557 27C10.3587 27 8.87891 25.5 8.87891 23.6786C8.87891 23.0357 9.40742 22.6072 9.93593 22.6072C10.5701 22.6072 10.993 23.1429 10.993 23.6786C10.993 24.3215 11.5215 24.75 12.05 24.75C12.6842 24.75 13.107 25.2857 13.107 25.8215C13.3184 26.4643 12.7899 27 12.1557 27Z" fill="black"/>
<path d="M45.452 31.5H39.9555C39.3212 31.5 38.8984 30.9643 38.8984 30.4286V5.57143C38.8984 4.92857 39.4269 4.5 39.9555 4.5H45.452C46.0862 4.5 46.509 5.03571 46.509 5.57143V30.3214C46.6147 30.9643 46.0862 31.5 45.452 31.5ZM41.0125 29.25H44.395V6.75H41.1182V29.25H41.0125Z" fill="black"/>
<path d="M39.9554 9.00003H34.4589C33.8247 9.00003 33.4019 8.46432 33.4019 7.92861C33.4019 7.39289 33.9304 6.85718 34.4589 6.85718H39.9554C40.5896 6.85718 41.0124 7.39289 41.0124 7.92861C41.0124 8.46432 40.5896 9.00003 39.9554 9.00003Z" fill="black"/>
<path d="M39.9554 29.25H34.4589C33.8247 29.25 33.4019 28.7143 33.4019 28.1786C33.4019 27.5357 33.9304 27.1072 34.4589 27.1072H39.9554C40.5896 27.1072 41.0124 27.6429 41.0124 28.1786C41.0124 28.7143 40.5896 29.25 39.9554 29.25Z" fill="black"/>
<path d="M32.1334 27H12.1557C11.5214 27 11.0986 26.4643 11.0986 25.9286C11.0986 25.3929 11.6271 24.8572 12.1557 24.8572H30.9707V11.25H12.1557C11.5214 11.25 11.0986 10.7143 11.0986 10.1786C11.0986 9.64289 11.6271 9.10718 12.1557 9.10718H32.1334C32.7676 9.10718 33.1904 9.64289 33.1904 10.1786V25.9286C33.2961 26.4643 32.7676 27 32.1334 27Z" fill="black"/>
<path d="M9.93593 24.75C9.30172 24.75 8.87891 24.2143 8.87891 23.6786V12.3214C8.87891 11.6786 9.40742 11.25 9.93593 11.25C10.5701 11.25 10.993 11.7857 10.993 12.3214V23.5714C11.0987 24.2143 10.5701 24.75 9.93593 24.75Z" fill="black"/>
<path d="M9.93602 17.4644H1.05702C0.422809 17.4644 0 16.9287 0 16.393C0 15.8572 0.528512 15.3215 1.05702 15.3215H9.93602C10.5702 15.3215 10.993 15.8572 10.993 16.393C10.993 16.9287 10.5702 17.4644 9.93602 17.4644Z" fill="black"/>
<path d="M9.93602 20.7857H1.05702C0.422809 20.7857 0 20.25 0 19.7143C0 19.0714 0.528512 18.6428 1.05702 18.6428H9.93602C10.5702 18.6428 10.993 19.1785 10.993 19.7143C11.0987 20.25 10.5702 20.7857 9.93602 20.7857Z" fill="black"/>
</svg>
