<svg width="68" height="41" viewBox="0 0 68 41" fill="none" xmlns="http://www.w3.org/2000/svg">
<g clip-path="url(#clip0)">
<path d="M11.1 26.2C8.7 25.3 6 26.5 5 29C4 31.5 5.3 34.2 7.7 35.1C10.1 36 12.9 34.8 13.8 32.4C14.7 29.9 13.5 27.2 11.1 26.2ZM8.6 32.8C7.4 32.3 6.8 31 7.2 29.8C7.7 28.6 9 28 10.2 28.4C11.4 28.9 12 30.2 11.6 31.4C11.2 32.7 9.8 33.3 8.6 32.8Z" fill="black"/>
<path d="M60.9001 4.90005C59.0001 4.20005 57.0001 5.20005 56.3001 7.00005C55.6001 8.80005 56.5001 10.9 58.3001 11.6C60.1001 12.3 62.2001 11.4 62.9001 9.60005C63.6001 7.80005 62.7001 5.60005 60.9001 4.90005ZM59.2001 9.30005C58.6001 9.10005 58.3001 8.40005 58.5001 7.80005C58.7001 7.20005 59.4001 6.90005 60.0001 7.10005C60.6001 7.30005 60.9001 8.00005 60.7001 8.60005C60.5001 9.30005 59.8001 9.60005 59.2001 9.30005Z" fill="black"/>
<path d="M62.5001 0.500019C58.3001 -1.09998 53.5001 1.00002 51.9001 5.30002C51.7001 5.80002 51.5001 6.40002 51.5001 6.90002L46.3001 9.20002L44.0001 7.30002C43.5001 6.90002 42.8001 7.00002 42.3001 7.50002C41.9001 8.00002 42.0001 8.80002 42.5001 9.20002L43.9001 10.4L40.2001 12L37.9001 10.1C37.4001 9.70002 36.7001 9.80002 36.2001 10.3C35.8001 10.8 35.9001 11.5 36.4001 12L37.8001 13.2L34.1001 14.8L31.8001 12.9C31.3001 12.5 30.6001 12.6 30.1001 13.1C29.7001 13.6 29.8001 14.3 30.3001 14.8L31.7001 16L28.0001 17.4L25.7001 15.5C25.2001 15.1 24.5001 15.2 24.0001 15.7C23.6001 16.2 23.7001 16.9 24.2001 17.4L25.6001 18.6L23.9001 19.4L23.0001 17.4C22.7001 16.8 22.0001 16.5 21.4001 16.8L12.3001 20.9C12.0001 21.1 11.7001 21.3 11.7001 21.7C7.20007 20.6 2.40007 23 0.70007 27.4C-1.19993 32.3 1.30007 37.7 6.10007 39.6C10.6001 41.3 15.5001 39.3 17.7001 35.2C17.7001 35.2 17.8001 35.2 17.8001 35.3C18.1001 35.4 18.4001 35.4 18.7001 35.3L27.8001 31.2C28.4001 30.9 28.7001 30.2 28.4001 29.6L27.5001 27.6L33.4001 25L35.7001 26.9C35.8001 27 35.9001 27 36.0001 27.1C36.5001 27.3 37.0001 27.1 37.3001 26.7C37.7001 26.2 37.6001 25.5 37.1001 25L35.7001 23.8L39.4001 22.2L41.7001 24.1C41.8001 24.2 41.9001 24.2 42.0001 24.3C42.5001 24.5 43.0001 24.3 43.3001 23.9C43.7001 23.4 43.6001 22.7 43.1001 22.2L41.7001 21L45.4001 19.4L47.7001 21.3C47.8001 21.4 47.9001 21.4 48.0001 21.5C48.5001 21.7 49.0001 21.5 49.3001 21.1C49.7001 20.6 49.6001 19.9 49.1001 19.4L48.0001 18.4L51.7001 16.8L54.0001 18.7C54.1001 18.8 54.2001 18.8 54.3001 18.9C54.8001 19.1 55.3001 18.9 55.6001 18.5C56.0001 18 55.9001 17.3 55.4001 16.8L54.0001 15.6L55.1001 15.1C55.6001 15.4 56.1001 15.7 56.6001 15.9C60.8001 17.5 65.6001 15.4 67.2001 11.1C68.9001 6.90002 66.8001 2.20002 62.5001 0.500019ZM6.90007 37.2C3.30007 35.8 1.40007 31.7 2.80007 28.1C4.20007 24.5 8.30007 22.6 11.9001 24C15.5001 25.4 17.4001 29.5 16.0001 33.1C14.6001 36.8 10.5001 38.6 6.90007 37.2ZM18.8001 32.5L18.7001 32.3C19.3001 28.6 17.6001 24.8 14.4001 22.8L14.3001 22.6L21.3001 19.5L25.8001 29.5L18.8001 32.5ZM26.6001 25.3L24.8001 21.4L27.6001 20.1L31.3001 23.2L26.6001 25.3ZM33.8001 22.1L30.1001 19L33.8001 17.4L37.5001 20.5L33.8001 22.1ZM39.9001 19.4L36.2001 16.3L39.9001 14.7L43.6001 17.8L39.9001 19.4ZM45.9001 16.7L42.2001 13.6L45.9001 12L49.6001 15.1L45.9001 16.7ZM52.0001 14L48.3001 10.9L51.5001 9.50002C51.7001 10.9 52.3001 12.3 53.3001 13.4L52.0001 14ZM57.5001 13.7C54.5001 12.5 52.9001 9.10002 54.1001 6.10002C55.3001 3.10002 58.7001 1.50002 61.7001 2.70002C64.7001 3.90002 66.3001 7.30002 65.1001 10.3C63.9001 13.3 60.5001 14.9 57.5001 13.7Z" fill="black"/>
</g>
<defs>
<clipPath id="clip0">
<rect width="67.8" height="40.1" fill="white"/>
</clipPath>
</defs>
</svg>
