<svg width="68" height="39" viewBox="0 0 68 39" fill="none" xmlns="http://www.w3.org/2000/svg">
<g clip-path="url(#clip0)">
<path d="M54.2001 4.6L53.8 4.5L54.2001 4.6Z" fill="black"/>
<path d="M67.3001 8.59998C66.8001 7.69998 65.9001 7.09998 64.9001 6.89998L64.5001 6.79998L54.2001 4.59998L53.8001 4.49998C52.8001 4.29998 51.8001 4.49998 50.9001 4.99998C50.0001 5.49998 49.4001 6.39998 49.2001 7.39998L47.8001 13.9H44.6001C43.7001 13.9 43.0001 14.6 43.0001 15.5V16.6H39.0001H28.9001H24.9001V15.4C24.9001 14.6 24.3001 14 23.5001 14H20.1001L18.7001 7.49998C18.5001 6.49998 17.9001 5.69998 17.0001 5.09998C16.1001 4.49998 15.1001 4.39998 14.1001 4.59998L13.7001 4.69998L3.00008 6.89998C2.00008 7.19998 1.20008 7.79998 0.600078 8.59998C0.100078 9.49998 -0.0999218 10.5 0.100078 11.5L5.40008 35.4C5.60008 36.4 6.20008 37.2 7.10008 37.8C7.70008 38.2 8.40008 38.4 9.20008 38.4C9.50008 38.4 9.80008 38.4 10.0001 38.3L21.0001 35.8C22.0001 35.6 22.8001 35 23.4001 34.1C23.9001 33.2 24.1001 32.2 23.9001 31.2L22.4001 24.5H23.4001C24.2001 24.5 24.8001 23.9 24.8001 23.1V22H28.8001H39.0001H43.0001V23.1C43.0001 24 43.7001 24.7 44.6001 24.7H45.5001L44.0001 31.3C43.5001 33.4 44.9001 35.4 46.9001 35.9L58.0001 38.3C58.3001 38.4 58.6001 38.4 58.8001 38.4C60.6001 38.4 62.1001 37.2 62.5001 35.4L63.1001 32.7L61.2001 32.3L60.6001 35C60.4001 35.8 59.8001 36.4 59.0001 36.4L65.0001 9.09998C65.2001 9.19998 65.4001 9.39998 65.6001 9.69998C65.9001 10.1 66.0001 10.6 65.8001 11.1L61.0001 32.7C60.9001 33.2 62.8001 33.8 62.9001 33.2L67.7001 11.5C68.0001 10.5 67.9001 9.49998 67.3001 8.59998ZM8.10008 36.1C7.70008 35.8 7.40008 35.4 7.30008 34.9L2.00008 11.1C1.90008 10.6 2.00008 10.1 2.20008 9.69998C2.40008 9.49998 2.60008 9.29998 2.80008 9.09998L8.80008 36.4C8.60008 36.4 8.30008 36.3 8.10008 36.1ZM10.8001 36.1L4.80008 8.59998L13.2001 6.79998L19.3001 34.3L10.8001 36.1ZM21.8001 33.1C21.6001 33.3 21.4001 33.5 21.2001 33.7L15.2001 6.39998C15.5001 6.39998 15.8001 6.49998 16.0001 6.69998C16.4001 6.99998 16.7001 7.39998 16.8001 7.89998L22.0001 31.7C22.1001 32.2 22.0001 32.7 21.8001 33.1ZM22.9001 22.6H22.0001L20.5001 15.9H22.9001V22.6ZM43.0001 20H24.9001V18.5H43.0001V20ZM43.0001 20V18.5V20ZM45.0001 22.6V15.9H47.4001L45.9001 22.6H45.0001ZM46.8001 33.7C46.1001 33.3 45.8001 32.5 45.9001 31.7L51.2001 7.79998C51.3001 7.29998 51.6001 6.89998 52.0001 6.59998C52.2001 6.39998 52.5001 6.39998 52.8001 6.29998L46.8001 33.7ZM57.1001 36.1L48.7001 34.3L54.8001 6.79998L63.2001 8.59998L57.1001 36.1Z" fill="black"/>
<path d="M47.1999 3.99998L45.8999 0.699975C45.6999 0.199975 45.0999 -0.100025 44.5999 0.0999752C44.0999 0.299975 43.7999 0.899975 43.9999 1.39998L44.2999 1.99998C37.4999 -0.700025 30.4999 -0.700025 23.6999 2.09998L23.9999 1.39998C24.1999 0.899975 23.9999 0.299975 23.3999 0.0999752C22.8999 -0.100025 22.2999 0.0999752 22.0999 0.699975L20.6999 3.99998C20.4999 4.49998 20.6999 5.09998 21.1999 5.29998L23.9999 6.49998C24.0999 6.59998 24.2999 6.59998 24.3999 6.59998C24.7999 6.59998 25.1999 6.39998 25.2999 5.99998C25.4999 5.49998 25.2999 4.89997 24.7999 4.69998L23.6999 4.19998C27.1999 2.69998 30.5999 1.99998 33.9999 1.99998C37.3999 1.99998 40.7999 2.69998 44.1999 4.19998L43.0999 4.69998C42.5999 4.89997 42.3999 5.49998 42.5999 5.99998C42.7999 6.39998 43.0999 6.59998 43.4999 6.59998C43.5999 6.59998 43.7999 6.59998 43.8999 6.49998L46.6999 5.29998C47.0999 4.99998 47.3999 4.49998 47.1999 3.99998Z" fill="black"/>
</g>
<defs>
<clipPath id="clip0">
<rect width="67.9" height="38.4" fill="white"/>
</clipPath>
</defs>
</svg>
