<svg width="74" height="37" viewBox="0 0 74 37" fill="none" xmlns="http://www.w3.org/2000/svg">
<rect width="74" height="37" fill="#FF3232"/>
<path d="M11.4623 13.4C11.6689 13.2333 11.9089 13.1067 12.1823 13.02C12.4623 12.9267 12.7289 12.88 12.9823 12.88C13.7289 12.88 14.2923 13.11 14.6723 13.57C15.0589 14.0233 15.2523 14.6567 15.2523 15.47C15.2523 15.8167 15.2056 16.15 15.1123 16.47C15.0189 16.79 14.8723 17.0733 14.6723 17.32C14.4789 17.5667 14.2323 17.7633 13.9323 17.91C13.6323 18.0567 13.2756 18.13 12.8623 18.13C12.3889 18.13 11.9956 18.0433 11.6823 17.87C11.3689 17.6967 11.1189 17.46 10.9323 17.16C10.7523 16.86 10.6256 16.51 10.5523 16.11C10.4789 15.71 10.4423 15.2867 10.4423 14.84C10.4423 14.26 10.4823 13.72 10.5623 13.22C10.6489 12.72 10.8023 12.28 11.0223 11.9C11.2423 11.52 11.5456 11.2067 11.9323 10.96C12.3256 10.7067 12.8289 10.5367 13.4423 10.45C13.6223 10.4233 13.7789 10.4033 13.9123 10.39C14.0523 10.37 14.1723 10.3533 14.2723 10.34C14.3789 10.3267 14.4756 10.3133 14.5623 10.3C14.6489 10.28 14.7389 10.26 14.8323 10.24L14.9323 11.08C14.8856 11.0933 14.8356 11.1033 14.7823 11.11C14.7356 11.1167 14.6656 11.1267 14.5723 11.14C14.4856 11.1533 14.3656 11.17 14.2123 11.19C14.0656 11.21 13.8723 11.2333 13.6323 11.26C12.9723 11.3333 12.4656 11.5333 12.1123 11.86C11.7589 12.1867 11.5423 12.7 11.4623 13.4ZM11.4023 14.99C11.4023 15.3033 11.4223 15.6 11.4623 15.88C11.5089 16.16 11.5856 16.4067 11.6923 16.62C11.8056 16.8333 11.9556 17.0033 12.1423 17.13C12.3289 17.25 12.5689 17.31 12.8623 17.31C13.1156 17.31 13.3323 17.2633 13.5123 17.17C13.6923 17.07 13.8389 16.9367 13.9523 16.77C14.0656 16.6033 14.1489 16.41 14.2023 16.19C14.2556 15.9633 14.2823 15.7233 14.2823 15.47C14.2823 15.2433 14.2589 15.0233 14.2123 14.81C14.1723 14.5967 14.0956 14.4067 13.9823 14.24C13.8689 14.0733 13.7156 13.94 13.5223 13.84C13.3356 13.74 13.0989 13.69 12.8123 13.69C12.5323 13.69 12.2623 13.75 12.0023 13.87C11.7489 13.99 11.5523 14.1367 11.4123 14.31C11.4056 14.3833 11.4023 14.4867 11.4023 14.62C11.4023 14.7533 11.4023 14.8767 11.4023 14.99ZM16.2795 15.41C16.2795 14.95 16.3462 14.55 16.4795 14.21C16.6129 13.8633 16.7895 13.5767 17.0095 13.35C17.2295 13.1233 17.4829 12.9533 17.7695 12.84C18.0562 12.7267 18.3495 12.67 18.6495 12.67C19.3495 12.67 19.8862 12.89 20.2595 13.33C20.6329 13.7633 20.8195 14.4267 20.8195 15.32C20.8195 15.36 20.8195 15.4133 20.8195 15.48C20.8195 15.54 20.8162 15.5967 20.8095 15.65H17.2495C17.2895 16.19 17.4462 16.6 17.7195 16.88C17.9929 17.16 18.4195 17.3 18.9995 17.3C19.3262 17.3 19.5995 17.2733 19.8195 17.22C20.0462 17.16 20.2162 17.1033 20.3295 17.05L20.4595 17.83C20.3462 17.89 20.1462 17.9533 19.8595 18.02C19.5795 18.0867 19.2595 18.12 18.8995 18.12C18.4462 18.12 18.0529 18.0533 17.7195 17.92C17.3929 17.78 17.1229 17.59 16.9095 17.35C16.6962 17.11 16.5362 16.8267 16.4295 16.5C16.3295 16.1667 16.2795 15.8033 16.2795 15.41ZM19.8495 14.9C19.8562 14.48 19.7495 14.1367 19.5295 13.87C19.3162 13.5967 19.0195 13.46 18.6395 13.46C18.4262 13.46 18.2362 13.5033 18.0695 13.59C17.9095 13.67 17.7729 13.7767 17.6595 13.91C17.5462 14.0433 17.4562 14.1967 17.3895 14.37C17.3295 14.5433 17.2895 14.72 17.2695 14.9H19.8495ZM24.4155 18.12C23.9955 18.12 23.6255 18.0533 23.3055 17.92C22.9921 17.7867 22.7255 17.6 22.5055 17.36C22.2921 17.12 22.1321 16.8367 22.0255 16.51C21.9188 16.1767 21.8655 15.81 21.8655 15.41C21.8655 15.01 21.9221 14.6433 22.0355 14.31C22.1555 13.9767 22.3221 13.69 22.5355 13.45C22.7488 13.2033 23.0088 13.0133 23.3155 12.88C23.6288 12.74 23.9755 12.67 24.3555 12.67C24.5888 12.67 24.8221 12.69 25.0555 12.73C25.2888 12.77 25.5121 12.8333 25.7255 12.92L25.5155 13.71C25.3755 13.6433 25.2121 13.59 25.0255 13.55C24.8455 13.51 24.6521 13.49 24.4455 13.49C23.9255 13.49 23.5255 13.6533 23.2455 13.98C22.9721 14.3067 22.8355 14.7833 22.8355 15.41C22.8355 15.69 22.8655 15.9467 22.9255 16.18C22.9921 16.4133 23.0921 16.6133 23.2255 16.78C23.3655 16.9467 23.5421 17.0767 23.7555 17.17C23.9688 17.2567 24.2288 17.3 24.5355 17.3C24.7821 17.3 25.0055 17.2767 25.2055 17.23C25.4055 17.1833 25.5621 17.1333 25.6755 17.08L25.8055 17.86C25.7521 17.8933 25.6755 17.9267 25.5755 17.96C25.4755 17.9867 25.3621 18.01 25.2355 18.03C25.1088 18.0567 24.9721 18.0767 24.8255 18.09C24.6855 18.11 24.5488 18.12 24.4155 18.12ZM30.9839 18H30.0539V13.58H27.7339V18H26.8039V12.8H30.9839V18ZM34.3952 13.58C34.3952 13.8 34.3885 14.0367 34.3752 14.29C34.3685 14.5367 34.3518 14.7867 34.3252 15.04C34.2985 15.2867 34.2618 15.5333 34.2152 15.78C34.1685 16.02 34.1085 16.2467 34.0352 16.46C33.9618 16.6733 33.8685 16.8733 33.7552 17.06C33.6485 17.2467 33.5152 17.4133 33.3552 17.56C33.1952 17.7 33.0085 17.82 32.7952 17.92C32.5818 18.0133 32.3318 18.0733 32.0452 18.1L31.9152 17.32C32.2418 17.2533 32.4985 17.13 32.6852 16.95C32.8785 16.77 33.0318 16.55 33.1452 16.29C33.2452 16.0633 33.3185 15.8067 33.3652 15.52C33.4118 15.2333 33.4452 14.9367 33.4652 14.63C33.4852 14.3167 33.4952 14.0033 33.4952 13.69C33.5018 13.3767 33.5052 13.08 33.5052 12.8H36.9652V18H36.0352V13.58H34.3952ZM40.3217 17.33C40.5417 17.33 40.7351 17.3267 40.9017 17.32C41.0751 17.3067 41.2184 17.2867 41.3317 17.26V15.71C41.2651 15.6767 41.1551 15.65 41.0017 15.63C40.8551 15.6033 40.6751 15.59 40.4617 15.59C40.3217 15.59 40.1717 15.6 40.0117 15.62C39.8584 15.64 39.7151 15.6833 39.5817 15.75C39.4551 15.81 39.3484 15.8967 39.2617 16.01C39.1751 16.1167 39.1317 16.26 39.1317 16.44C39.1317 16.7733 39.2384 17.0067 39.4517 17.14C39.6651 17.2667 39.9551 17.33 40.3217 17.33ZM40.2417 12.67C40.6151 12.67 40.9284 12.72 41.1817 12.82C41.4417 12.9133 41.6484 13.05 41.8017 13.23C41.9617 13.4033 42.0751 13.6133 42.1417 13.86C42.2084 14.1 42.2417 14.3667 42.2417 14.66V17.91C42.1617 17.9233 42.0484 17.9433 41.9017 17.97C41.7617 17.99 41.6017 18.01 41.4217 18.03C41.2417 18.05 41.0451 18.0667 40.8317 18.08C40.6251 18.1 40.4184 18.11 40.2117 18.11C39.9184 18.11 39.6484 18.08 39.4017 18.02C39.1551 17.96 38.9417 17.8667 38.7617 17.74C38.5817 17.6067 38.4417 17.4333 38.3417 17.22C38.2417 17.0067 38.1917 16.75 38.1917 16.45C38.1917 16.1633 38.2484 15.9167 38.3617 15.71C38.4817 15.5033 38.6417 15.3367 38.8417 15.21C39.0417 15.0833 39.2751 14.99 39.5417 14.93C39.8084 14.87 40.0884 14.84 40.3817 14.84C40.4751 14.84 40.5717 14.8467 40.6717 14.86C40.7717 14.8667 40.8651 14.88 40.9517 14.9C41.0451 14.9133 41.1251 14.9267 41.1917 14.94C41.2584 14.9533 41.3051 14.9633 41.3317 14.97V14.71C41.3317 14.5567 41.3151 14.4067 41.2817 14.26C41.2484 14.1067 41.1884 13.9733 41.1017 13.86C41.0151 13.74 40.8951 13.6467 40.7417 13.58C40.5951 13.5067 40.4017 13.47 40.1617 13.47C39.8551 13.47 39.5851 13.4933 39.3517 13.54C39.1251 13.58 38.9551 13.6233 38.8417 13.67L38.7317 12.9C38.8517 12.8467 39.0517 12.7967 39.3317 12.75C39.6117 12.6967 39.9151 12.67 40.2417 12.67ZM47.4563 12.8V13.58H45.7663V18H44.8363V13.58H43.1463V12.8H47.4563ZM52.6752 18H51.7452V15.7H49.3452V18H48.4152V12.8H49.3452V14.92H51.7452V12.8H52.6752V18ZM56.0346 17.33C56.2546 17.33 56.4479 17.3267 56.6146 17.32C56.7879 17.3067 56.9313 17.2867 57.0446 17.26V15.71C56.9779 15.6767 56.8679 15.65 56.7146 15.63C56.5679 15.6033 56.3879 15.59 56.1746 15.59C56.0346 15.59 55.8846 15.6 55.7246 15.62C55.5713 15.64 55.4279 15.6833 55.2946 15.75C55.1679 15.81 55.0613 15.8967 54.9746 16.01C54.8879 16.1167 54.8446 16.26 54.8446 16.44C54.8446 16.7733 54.9513 17.0067 55.1646 17.14C55.3779 17.2667 55.6679 17.33 56.0346 17.33ZM55.9546 12.67C56.3279 12.67 56.6413 12.72 56.8946 12.82C57.1546 12.9133 57.3613 13.05 57.5146 13.23C57.6746 13.4033 57.7879 13.6133 57.8546 13.86C57.9213 14.1 57.9546 14.3667 57.9546 14.66V17.91C57.8746 17.9233 57.7613 17.9433 57.6146 17.97C57.4746 17.99 57.3146 18.01 57.1346 18.03C56.9546 18.05 56.7579 18.0667 56.5446 18.08C56.3379 18.1 56.1313 18.11 55.9246 18.11C55.6313 18.11 55.3613 18.08 55.1146 18.02C54.8679 17.96 54.6546 17.8667 54.4746 17.74C54.2946 17.6067 54.1546 17.4333 54.0546 17.22C53.9546 17.0067 53.9046 16.75 53.9046 16.45C53.9046 16.1633 53.9613 15.9167 54.0746 15.71C54.1946 15.5033 54.3546 15.3367 54.5546 15.21C54.7546 15.0833 54.9879 14.99 55.2546 14.93C55.5213 14.87 55.8013 14.84 56.0946 14.84C56.1879 14.84 56.2846 14.8467 56.3846 14.86C56.4846 14.8667 56.5779 14.88 56.6646 14.9C56.7579 14.9133 56.8379 14.9267 56.9046 14.94C56.9713 14.9533 57.0179 14.9633 57.0446 14.97V14.71C57.0446 14.5567 57.0279 14.4067 56.9946 14.26C56.9613 14.1067 56.9013 13.9733 56.8146 13.86C56.7279 13.74 56.6079 13.6467 56.4546 13.58C56.3079 13.5067 56.1146 13.47 55.8746 13.47C55.5679 13.47 55.2979 13.4933 55.0646 13.54C54.8379 13.58 54.6679 13.6233 54.5546 13.67L54.4446 12.9C54.5646 12.8467 54.7646 12.7967 55.0446 12.75C55.3246 12.6967 55.6279 12.67 55.9546 12.67ZM61.6492 15.98C61.5492 15.98 61.4526 15.98 61.3592 15.98C61.2659 15.9733 61.1759 15.9667 61.0892 15.96C60.8759 16.28 60.6692 16.6233 60.4692 16.99C60.2759 17.35 60.1026 17.6867 59.9492 18H59.0092C59.0892 17.8067 59.1826 17.61 59.2892 17.41C59.3959 17.2033 59.5026 17.0033 59.6092 16.81C59.7226 16.6167 59.8359 16.4333 59.9492 16.26C60.0626 16.0867 60.1692 15.93 60.2692 15.79C60.0826 15.7233 59.9292 15.6433 59.8092 15.55C59.6892 15.45 59.5926 15.34 59.5192 15.22C59.4459 15.1 59.3926 14.9733 59.3592 14.84C59.3326 14.7 59.3192 14.56 59.3192 14.42C59.3192 14.1267 59.3726 13.87 59.4792 13.65C59.5926 13.43 59.7459 13.25 59.9392 13.11C60.1326 12.9633 60.3592 12.8533 60.6192 12.78C60.8859 12.7067 61.1759 12.67 61.4892 12.67C61.9292 12.67 62.3026 12.69 62.6092 12.73C62.9159 12.77 63.1726 12.8167 63.3792 12.87V18H62.4592V15.98H61.6492ZM62.4592 13.49C62.3859 13.4767 62.2626 13.4633 62.0892 13.45C61.9226 13.4367 61.7292 13.43 61.5092 13.43C61.1292 13.43 60.8226 13.51 60.5892 13.67C60.3559 13.8233 60.2392 14.07 60.2392 14.41C60.2392 14.7433 60.3592 14.9733 60.5992 15.1C60.8392 15.2267 61.1492 15.29 61.5292 15.29H62.4592V13.49ZM7.58969 27.24H8.14969C8.36969 26.92 8.54302 26.59 8.66969 26.25C8.80302 25.91 8.90302 25.56 8.96969 25.2C9.03635 24.8333 9.07969 24.4533 9.09969 24.06C9.11969 23.66 9.13302 23.24 9.13969 22.8H12.5497V27.24H13.2497V29.45H12.3697V28H8.46969V29.45H7.58969V27.24ZM11.6197 27.24V23.58H9.98969C9.98302 23.8933 9.96635 24.21 9.93969 24.53C9.91302 24.8433 9.86969 25.1567 9.80969 25.47C9.74969 25.7767 9.66302 26.08 9.54969 26.38C9.44302 26.6733 9.30635 26.96 9.13969 27.24H11.6197ZM18.6251 22.8V28H17.7251V24.04C17.5251 24.2933 17.3051 24.59 17.0651 24.93C16.8251 25.27 16.5851 25.6233 16.3451 25.99C16.1051 26.35 15.8751 26.7067 15.6551 27.06C15.4351 27.4133 15.2451 27.7267 15.0851 28H14.2551V22.8H15.1551V26.54C15.3284 26.2533 15.5251 25.94 15.7451 25.6C15.9651 25.2533 16.1917 24.9133 16.4251 24.58C16.6651 24.24 16.9017 23.9167 17.1351 23.61C17.3751 23.2967 17.5984 23.0267 17.8051 22.8H18.6251ZM21.9819 27.33C22.2019 27.33 22.3952 27.3267 22.5619 27.32C22.7352 27.3067 22.8785 27.2867 22.9919 27.26V25.71C22.9252 25.6767 22.8152 25.65 22.6619 25.63C22.5152 25.6033 22.3352 25.59 22.1219 25.59C21.9819 25.59 21.8319 25.6 21.6719 25.62C21.5185 25.64 21.3752 25.6833 21.2419 25.75C21.1152 25.81 21.0085 25.8967 20.9219 26.01C20.8352 26.1167 20.7919 26.26 20.7919 26.44C20.7919 26.7733 20.8985 27.0067 21.1119 27.14C21.3252 27.2667 21.6152 27.33 21.9819 27.33ZM21.9019 22.67C22.2752 22.67 22.5885 22.72 22.8419 22.82C23.1019 22.9133 23.3085 23.05 23.4619 23.23C23.6219 23.4033 23.7352 23.6133 23.8019 23.86C23.8685 24.1 23.9019 24.3667 23.9019 24.66V27.91C23.8219 27.9233 23.7085 27.9433 23.5619 27.97C23.4219 27.99 23.2619 28.01 23.0819 28.03C22.9019 28.05 22.7052 28.0667 22.4919 28.08C22.2852 28.1 22.0785 28.11 21.8719 28.11C21.5785 28.11 21.3085 28.08 21.0619 28.02C20.8152 27.96 20.6019 27.8667 20.4219 27.74C20.2419 27.6067 20.1019 27.4333 20.0019 27.22C19.9019 27.0067 19.8519 26.75 19.8519 26.45C19.8519 26.1633 19.9085 25.9167 20.0219 25.71C20.1419 25.5033 20.3019 25.3367 20.5019 25.21C20.7019 25.0833 20.9352 24.99 21.2019 24.93C21.4685 24.87 21.7485 24.84 22.0419 24.84C22.1352 24.84 22.2319 24.8467 22.3319 24.86C22.4319 24.8667 22.5252 24.88 22.6119 24.9C22.7052 24.9133 22.7852 24.9267 22.8519 24.94C22.9185 24.9533 22.9652 24.9633 22.9919 24.97V24.71C22.9919 24.5567 22.9752 24.4067 22.9419 24.26C22.9085 24.1067 22.8485 23.9733 22.7619 23.86C22.6752 23.74 22.5552 23.6467 22.4019 23.58C22.2552 23.5067 22.0619 23.47 21.8219 23.47C21.5152 23.47 21.2452 23.4933 21.0119 23.54C20.7852 23.58 20.6152 23.6233 20.5019 23.67L20.3919 22.9C20.5119 22.8467 20.7119 22.7967 20.9919 22.75C21.2719 22.6967 21.5752 22.67 21.9019 22.67ZM28.6665 23.58H26.3765V28H25.4465V22.8H28.6665V23.58ZM33.8862 28H32.9562V25.7H30.5562V28H29.6262V22.8H30.5562V24.92H32.9562V22.8H33.8862V28ZM40.0755 25.4C40.0755 25.8133 40.0155 26.1867 39.8955 26.52C39.7755 26.8533 39.6055 27.14 39.3855 27.38C39.1722 27.62 38.9155 27.8067 38.6155 27.94C38.3155 28.0667 37.9889 28.13 37.6355 28.13C37.2822 28.13 36.9555 28.0667 36.6555 27.94C36.3555 27.8067 36.0955 27.62 35.8755 27.38C35.6622 27.14 35.4955 26.8533 35.3755 26.52C35.2555 26.1867 35.1955 25.8133 35.1955 25.4C35.1955 24.9933 35.2555 24.6233 35.3755 24.29C35.4955 23.95 35.6622 23.66 35.8755 23.42C36.0955 23.18 36.3555 22.9967 36.6555 22.87C36.9555 22.7367 37.2822 22.67 37.6355 22.67C37.9889 22.67 38.3155 22.7367 38.6155 22.87C38.9155 22.9967 39.1722 23.18 39.3855 23.42C39.6055 23.66 39.7755 23.95 39.8955 24.29C40.0155 24.6233 40.0755 24.9933 40.0755 25.4ZM39.1055 25.4C39.1055 24.8133 38.9722 24.35 38.7055 24.01C38.4455 23.6633 38.0889 23.49 37.6355 23.49C37.1822 23.49 36.8222 23.6633 36.5555 24.01C36.2955 24.35 36.1655 24.8133 36.1655 25.4C36.1655 25.9867 36.2955 26.4533 36.5555 26.8C36.8222 27.14 37.1822 27.31 37.6355 27.31C38.0889 27.31 38.4455 27.14 38.7055 26.8C38.9722 26.4533 39.1055 25.9867 39.1055 25.4ZM43.644 28.12C43.224 28.12 42.854 28.0533 42.534 27.92C42.2207 27.7867 41.954 27.6 41.734 27.36C41.5207 27.12 41.3607 26.8367 41.254 26.51C41.1473 26.1767 41.094 25.81 41.094 25.41C41.094 25.01 41.1507 24.6433 41.264 24.31C41.384 23.9767 41.5507 23.69 41.764 23.45C41.9773 23.2033 42.2373 23.0133 42.544 22.88C42.8573 22.74 43.204 22.67 43.584 22.67C43.8173 22.67 44.0507 22.69 44.284 22.73C44.5173 22.77 44.7407 22.8333 44.954 22.92L44.744 23.71C44.604 23.6433 44.4407 23.59 44.254 23.55C44.074 23.51 43.8807 23.49 43.674 23.49C43.154 23.49 42.754 23.6533 42.474 23.98C42.2007 24.3067 42.064 24.7833 42.064 25.41C42.064 25.69 42.094 25.9467 42.154 26.18C42.2207 26.4133 42.3207 26.6133 42.454 26.78C42.594 26.9467 42.7707 27.0767 42.984 27.17C43.1973 27.2567 43.4573 27.3 43.764 27.3C44.0107 27.3 44.234 27.2767 44.434 27.23C44.634 27.1833 44.7907 27.1333 44.904 27.08L45.034 27.86C44.9807 27.8933 44.904 27.9267 44.804 27.96C44.704 27.9867 44.5907 28.01 44.464 28.03C44.3373 28.0567 44.2007 28.0767 44.054 28.09C43.914 28.11 43.7773 28.12 43.644 28.12ZM49.8489 22.8V23.58H48.1589V28H47.2289V23.58H45.5389V22.8H49.8489ZM55.1778 22.8V28H54.2778V24.04C54.0778 24.2933 53.8578 24.59 53.6178 24.93C53.3778 25.27 53.1378 25.6233 52.8978 25.99C52.6578 26.35 52.4278 26.7067 52.2078 27.06C51.9878 27.4133 51.7978 27.7267 51.6378 28H50.8078V22.8H51.7078V26.54C51.8811 26.2533 52.0778 25.94 52.2978 25.6C52.5178 25.2533 52.7445 24.9133 52.9778 24.58C53.2178 24.24 53.4545 23.9167 53.6878 23.61C53.9278 23.2967 54.1511 23.0267 54.3578 22.8H55.1778ZM58.6746 25.17C58.8813 25.3167 59.1046 25.5033 59.3446 25.73C59.5846 25.95 59.8179 26.19 60.0446 26.45C60.2779 26.71 60.4946 26.9767 60.6946 27.25C60.8946 27.5167 61.0646 27.7667 61.2046 28H60.1046C59.9579 27.7733 59.7846 27.5433 59.5846 27.31C59.3913 27.07 59.1879 26.84 58.9746 26.62C58.7613 26.4 58.5446 26.1967 58.3246 26.01C58.1046 25.8233 57.8979 25.6667 57.7046 25.54V28H56.7746V22.8H57.7046V25.03C57.8646 24.8767 58.0479 24.7 58.2546 24.5C58.4613 24.2933 58.6679 24.0867 58.8746 23.88C59.0879 23.6667 59.2846 23.4667 59.4646 23.28C59.6446 23.0867 59.7913 22.9267 59.9046 22.8H60.9846C60.8379 22.96 60.6646 23.1433 60.4646 23.35C60.2713 23.55 60.0679 23.7567 59.8546 23.97C59.6479 24.1833 59.4413 24.3967 59.2346 24.61C59.0279 24.8167 58.8413 25.0033 58.6746 25.17ZM63.9057 27.33C64.1257 27.33 64.319 27.3267 64.4857 27.32C64.659 27.3067 64.8024 27.2867 64.9157 27.26V25.71C64.849 25.6767 64.739 25.65 64.5857 25.63C64.439 25.6033 64.259 25.59 64.0457 25.59C63.9057 25.59 63.7557 25.6 63.5957 25.62C63.4424 25.64 63.299 25.6833 63.1657 25.75C63.039 25.81 62.9324 25.8967 62.8457 26.01C62.759 26.1167 62.7157 26.26 62.7157 26.44C62.7157 26.7733 62.8224 27.0067 63.0357 27.14C63.249 27.2667 63.539 27.33 63.9057 27.33ZM63.8257 22.67C64.199 22.67 64.5124 22.72 64.7657 22.82C65.0257 22.9133 65.2324 23.05 65.3857 23.23C65.5457 23.4033 65.659 23.6133 65.7257 23.86C65.7924 24.1 65.8257 24.3667 65.8257 24.66V27.91C65.7457 27.9233 65.6324 27.9433 65.4857 27.97C65.3457 27.99 65.1857 28.01 65.0057 28.03C64.8257 28.05 64.629 28.0667 64.4157 28.08C64.209 28.1 64.0024 28.11 63.7957 28.11C63.5024 28.11 63.2324 28.08 62.9857 28.02C62.739 27.96 62.5257 27.8667 62.3457 27.74C62.1657 27.6067 62.0257 27.4333 61.9257 27.22C61.8257 27.0067 61.7757 26.75 61.7757 26.45C61.7757 26.1633 61.8324 25.9167 61.9457 25.71C62.0657 25.5033 62.2257 25.3367 62.4257 25.21C62.6257 25.0833 62.859 24.99 63.1257 24.93C63.3924 24.87 63.6724 24.84 63.9657 24.84C64.059 24.84 64.1557 24.8467 64.2557 24.86C64.3557 24.8667 64.449 24.88 64.5357 24.9C64.629 24.9133 64.709 24.9267 64.7757 24.94C64.8424 24.9533 64.889 24.9633 64.9157 24.97V24.71C64.9157 24.5567 64.899 24.4067 64.8657 24.26C64.8324 24.1067 64.7724 23.9733 64.6857 23.86C64.599 23.74 64.479 23.6467 64.3257 23.58C64.179 23.5067 63.9857 23.47 63.7457 23.47C63.439 23.47 63.169 23.4933 62.9357 23.54C62.709 23.58 62.539 23.6233 62.4257 23.67L62.3157 22.9C62.4357 22.8467 62.6357 22.7967 62.9157 22.75C63.1957 22.6967 63.499 22.67 63.8257 22.67Z" fill="white"/>
</svg>
