<svg width="44" height="44" viewBox="0 0 44 44" fill="none" xmlns="http://www.w3.org/2000/svg">
<g clip-path="url(#clip0)">
<path d="M30 33.2999C26.2 28.0999 35.8 12.7 35.8 12.7H42.4C39.4 20.2 36.6 42.2999 36.6 42.2999H6.90001C6.90001 42.2999 5.50001 29.8 13.5 32.7C21.5 35.6 28.1 34.5999 28.1 34.5999" stroke="black" stroke-width="2" stroke-miterlimit="10"/>
<path d="M37.1 32.3C37.1 32.3 25.5 29.1 28.1 41.5" stroke="black" stroke-width="2" stroke-miterlimit="10"/>
<path d="M1 14.1999V18.9999C1 18.9999 6.7 13.5999 9.5 16.5999C12.3 19.5999 15.2 22.6999 15.2 22.6999L12.2 25.7999L15.2 28.7999L24.6 19.5999L21.5 16.7999L19.1 18.9999L18.5 19.5999C18.5 19.5999 17.5 18.0999 15.8 16.4999C12.5 13.1999 6.6 9.19989 1 14.1999Z" stroke="black" stroke-width="2" stroke-miterlimit="10"/>
<path d="M12.8 19.5999L15.5 16.8999" stroke="black" stroke-width="2" stroke-miterlimit="10"/>
<path d="M15.5 22.3L19.1 19" stroke="black" stroke-width="2" stroke-miterlimit="10"/>
<path d="M20.3999 27.3999L22.4999 30.0999" stroke="black" stroke-width="2" stroke-miterlimit="10"/>
<path d="M23.2 24.3999L26.1 27.3999" stroke="black" stroke-width="2" stroke-miterlimit="10"/>
<path d="M25.7 22.3L27.2 23.7001" stroke="black" stroke-width="2" stroke-miterlimit="10"/>
<path d="M39.0999 11.8V9.1C39.0999 9.1 34.7 9.8 34.7 6.9V3.6C34.7 3.2 34.8 2.8 35 2.5C35.4 1.9 36.2 1 37 1C38.3 1 40 1 40 1C40 1 42 1.3 42 3V7.4C42 7.8 41.6999 8.2 41.2999 8.4C40.3999 8.7 38.9 9.2 38 9.2" stroke="black" stroke-width="2" stroke-miterlimit="10"/>
</g>
<defs>
<clipPath id="clip0">
<rect width="43.8" height="43.2" fill="white"/>
</clipPath>
</defs>
</svg>
