<svg width="67" height="47" viewBox="0 0 67 47" fill="none" xmlns="http://www.w3.org/2000/svg">
<g clip-path="url(#clip0)">
<path d="M35.0999 5.89995C35.0999 4.39995 33.9 3.19995 32.4 3.19995C30.9 3.19995 29.7 4.39995 29.7 5.89995C29.7 7.39995 30.9 8.59995 32.4 8.59995C34 8.59995 35.0999 7.39995 35.0999 5.89995ZM31.7999 5.89995C31.7999 5.49995 32.1 5.19995 32.5 5.19995C32.9 5.19995 33.2 5.49995 33.2 5.89995C33.2 6.29995 32.9 6.59995 32.5 6.59995C32 6.59995 31.7999 6.19995 31.7999 5.89995Z" fill="black"/>
<path d="M63.3 44.3C65 44.4 66.5 43.2 66.9 41.5C67.1 40.6 67 39.6 66.6 38.8C65.9 37.2 63.9 36.6 62.4 37.3C61.3 37.9 60.3 39.1 60.3 40.7C60.3 42.2 61.1 43.1 61.4 43.4C60.7 44.5 59.5 45 58.2 44.9L46.7 43.9C44.2 43.7 41.9 42.5 40.3 40.6L40.9 40.2C41.4 39.9 41.5 39.3 41.1 38.8C40.8 38.3 38.7 34.7 38.7 31.3C38.7 27.7 40.7 24.1 41.1 23.7C41.4 23.2 41.3 22.6 40.9 22.3L40.3 21.9C41.9 20 44.3 18.8 46.7 18.6L58.2 17.5C59.4 17.4 60.7 18 61.4 19C60.4 19.8 60 21.3 60.4 22.6C60.9 24.5 62.7 25.7 64.5 25.3C65.4 25.1 66.1 24.5 66.5 23.7C67.3 22 66.8 19.9 65.3 18.8C64.7 18.4 64 18.2 63.3 18.2C62.3 16.3 60.2 15.3 58.1 15.5L46.6 16.6C43.5 16.9 40.7 18.4 38.7 20.8L38.1 20.3C37.6 20 37 20.1 36.7 20.5C36.2 21.3 35.7 22.1 35.3 22.9L34.7 25C34 26.8 33.6 28.6 33.5 30.4H13.7C7.2 30.4 2 25.1 2 18.6C2 12.1 7.3 6.89999 13.7 6.89999H26.6C27.2 10.1 30.2 12.3 33.4 11.7C36.6 11.1 38.8 8.09999 38.2 4.89999C37.6 1.69999 34.6 -0.500014 31.4 0.0999861C28.9 0.499986 27 2.49999 26.6 4.89999H13.7C6.2 4.89999 0 11.1 0 18.6C0 26.1 6.2 32.3 13.7 32.3H33.4C33.5 34.2 33.9 36 34.6 37.7L35.3 39.5C35.6 40.3 36.1 41.2 36.7 41.9C37 42.4 37.6 42.5 38.1 42.1L38.7 41.6C40.7 44 43.5 45.5 46.6 45.8L58.1 46.8C60.2 47.2 62.3 46.1 63.3 44.3ZM62.3 40.5C62.4 39.6 63 38.9 63.8 39C64.6 39.1 65.1 39.8 65.1 40.7C65 41.6 64.4 42.3 63.6 42.2C62.8 42.2 62.2 41.4 62.3 40.5ZM65 21.9C65.1 22.8 64.5 23.6 63.7 23.6C62.9 23.7 62.3 23 62.2 22.1C62.1 21.2 62.7 20.4 63.5 20.4C64.3 20.3 64.9 21 65 21.9ZM29.7 3.09999C30.4 2.39999 31.4 1.99999 32.4 1.99999C34.5 1.99999 36.3 3.79999 36.3 5.89999C36.3 7.99999 34.5 9.79999 32.4 9.79999C30.3 9.79999 28.5 7.99999 28.5 5.89999C28.5 4.79999 29 3.79999 29.7 3.09999ZM35.4 31.3C35.4 27.4 37 24.2 37.9 22.7L39.1 23.5C38.3 25.3 36.9 28.1 36.9 31.4C36.9 34.6 38.2 37.4 39.1 39.3L37.9 40.1C36.9 38.4 35.4 34.6 35.4 31.3Z" fill="black"/>
</g>
<defs>
<clipPath id="clip0">
<rect width="67" height="46.9" fill="white"/>
</clipPath>
</defs>
</svg>
