<svg width="69" height="41" viewBox="0 0 69 41" fill="none" xmlns="http://www.w3.org/2000/svg">
<g clip-path="url(#clip0)">
<path d="M66.8 16.4H61.8C61.1 16.4 60.5 17 60.5 17.7V21.5H58V15.2C58 14.9 57.9 14.5 57.6 14.3L53.8 10.5C53.6 10.3 53.2 10.1 52.9 10.1H47.9V7.6H49.2C49.9 7.6 50.5 7 50.5 6.3V1.3C50.5 0.6 49.9 0 49.2 0H29C28.3 0 27.7 0.6 27.7 1.3V6.3C27.7 7 28.3 7.6 29 7.6H30.3V10.1H24C23.8 10.1 23.7 10.1 23.5 10.2L17.4 12.6H11.3C10.6 12.6 10 13.2 10 13.9V17.7H7.6V13.9C7.6 13.2 7 12.6 6.3 12.6H1.3C0.6 12.6 0 13.2 0 13.9V35.3C0 36 0.6 36.6 1.3 36.6H6.3C7 36.6 7.6 36 7.6 35.3V31.5H10.1V35.3C10.1 36 10.7 36.6 11.4 36.6H17.4L23.4 40.2C23.6 40.3 23.8 40.4 24 40.4H56.8C57.5 40.4 58.1 39.8 58.1 39.1V35.3H60.6V39.1C60.6 39.8 61.2 40.4 61.9 40.4H66.9C67.6 40.4 68.2 39.8 68.2 39.1V17.7C68.1 17 67.5 16.4 66.8 16.4ZM5 34.1H2.5V15.1H5V34.1ZM10.1 29H7.6V20.2H10.1V29ZM16.4 34.1H12.6V15.1H16.4V34.1ZM22.7 36.9L18.9 34.6V14.7L22.7 13.2V36.9ZM30.3 2.5H48V5H30.3V2.5ZM45.4 7.6V10.1H32.8V7.6H45.4ZM55.5 37.8H25.2V35.3H55.5V37.8ZM55.5 32.8H25.2V12.6H52.4L55.4 15.6V32.8H55.5ZM60.5 32.8H58V24H60.5V32.8ZM65.6 37.8H63.1V18.9H65.6V37.8Z" fill="black"/>
</g>
<defs>
<clipPath id="clip0">
<rect width="68.1" height="40.4" fill="white"/>
</clipPath>
</defs>
</svg>
