<svg width="115" height="115" viewBox="0 0 115 115" fill="none" xmlns="http://www.w3.org/2000/svg">
<g clip-path="url(#clip0)">
<path d="M110.447 25.3743L58.2323 0.167324C57.7694 -0.0559375 57.2304 -0.0559375 56.7677 0.167324L4.55295 25.3743C3.97076 25.6553 3.60083 26.2449 3.60083 26.8913V88.1084C3.60083 88.7548 3.97076 89.3444 4.55295 89.6254L56.7674 114.832C56.9988 114.944 57.2495 115 57.4999 115C57.7503 115 58.0008 114.944 58.2323 114.832L110.447 89.6254C111.029 89.3444 111.399 88.7548 111.399 88.1084V26.8916C111.399 26.2447 111.029 25.6555 110.447 25.3743ZM57.4999 3.55511L105.84 26.8913L91.8269 33.6561C91.7382 33.5885 91.6446 33.5261 91.5417 33.4764L43.5303 10.299L57.4999 3.55511ZM39.7259 12.2037L87.9953 35.506L78.1092 40.2787L29.8597 16.9859L39.7259 12.2037ZM89.1247 38.7018V56.3439L79.8903 60.802V43.1598L89.1247 38.7018ZM108.03 87.0514L59.1845 110.631V53.1556L70.8356 47.5309C71.6734 47.1264 72.0247 46.1195 71.6202 45.2815C71.2157 44.4439 70.2087 44.0922 69.3707 44.4969L57.4999 50.2278L52.8289 47.9727C51.9909 47.5678 50.984 47.9195 50.5795 48.7573C50.1749 49.5951 50.5262 50.6022 51.364 51.0068L55.8153 53.1556V110.631L6.96997 87.0509V29.5752L44.1653 47.5316C44.4013 47.6457 44.6509 47.6996 44.8964 47.6996C45.5226 47.6996 46.1241 47.3488 46.4145 46.747C46.819 45.9093 46.4678 44.9021 45.63 44.4976L9.16014 26.8913L25.8947 18.8126L76.4978 43.2418C76.5052 43.2521 76.5135 43.2613 76.5212 43.2714V63.4861C76.5212 64.0658 76.8192 64.6046 77.3102 64.913C77.5829 65.0841 77.894 65.1706 78.206 65.1706C78.4557 65.1706 78.7062 65.1151 78.9382 65.0031L91.5417 58.9186C92.1239 58.6376 92.4938 58.0483 92.4938 57.4016V37.0756L108.03 29.5754V87.0514Z" fill="black"/>
<path d="M20.872 80.5177L13.2094 76.8187C12.3712 76.4137 11.3645 76.7654 10.9599 77.6032C10.5554 78.441 10.9067 79.4482 11.7445 79.8527L19.4071 83.5518C19.6431 83.6659 19.8927 83.7198 20.1382 83.7198C20.7644 83.7198 21.3659 83.3689 21.6563 82.7672C22.061 81.9292 21.7097 80.9225 20.872 80.5177Z" fill="black"/>
<path d="M27.9241 75.9274L13.22 68.8288C12.382 68.4243 11.3751 68.7756 10.9705 69.6136C10.5662 70.4514 10.9175 71.4586 11.7553 71.8631L26.4594 78.9616C26.6954 79.0755 26.945 79.1296 27.1905 79.1296C27.8167 79.1296 28.4182 78.7788 28.7086 78.1771C29.1131 77.3388 28.7618 76.3317 27.9241 75.9274Z" fill="black"/>
</g>
<defs>
<clipPath id="clip0">
<rect width="115" height="115" fill="white"/>
</clipPath>
</defs>
</svg>
