<svg width="132" height="113" viewBox="0 0 132 113" fill="none" xmlns="http://www.w3.org/2000/svg">
<path d="M131.1 47.7803L50.6609 1.34138C48.3513 0.0124382 45.609 -0.346614 43.0351 0.342921C40.4612 1.03246 38.2656 2.71433 36.9296 5.01991L27.6689 21.0592L21.504 31.7359C20.1742 34.0463 19.8151 36.7898 20.5053 39.3647C21.1954 41.9396 22.8786 44.1356 25.1856 45.4713L52.7647 61.393L48.4757 68.7068C47.9052 69.6748 47.0924 70.4776 46.1174 71.0362C45.1424 71.5948 44.0388 71.8898 42.9151 71.8923H26.8129V59.6203C26.8129 59.1416 26.6228 58.6826 26.2843 58.3442C25.9459 58.0057 25.4868 57.8156 25.0082 57.8156H15.2112V55.487C15.2087 53.368 14.3659 51.3366 12.8676 49.8383C11.3692 48.3399 9.3378 47.4971 7.21886 47.4947H1.80472C1.56768 47.4945 1.33294 47.5411 1.11392 47.6318C0.894901 47.7224 0.695897 47.8553 0.528287 48.0229C0.360677 48.1905 0.227747 48.3896 0.1371 48.6086C0.0464525 48.8276 -0.000135271 49.0623 2.95012e-07 49.2994V110.471C-0.000135271 110.708 0.0464525 110.943 0.1371 111.162C0.227747 111.381 0.360677 111.58 0.528287 111.747C0.695897 111.915 0.894901 112.048 1.11392 112.139C1.33294 112.229 1.56768 112.276 1.80472 112.276H7.21886C9.3378 112.273 11.3692 111.43 12.8676 109.932C14.3659 108.434 15.2087 106.402 15.2112 104.283V98.5506H25.0082C25.4868 98.5506 25.9459 98.3604 26.2843 98.022C26.6228 97.6835 26.8129 97.2245 26.8129 96.7458V87.877H42.9151C46.8247 87.8686 50.6647 86.8425 54.0573 84.8996C57.4499 82.9566 60.2781 80.1638 62.2637 76.796L66.6084 69.3874L81.7258 78.115C83.2478 78.9981 84.9759 79.4641 86.7356 79.466C87.6202 79.4656 88.5009 79.3491 89.3551 79.1195C90.9966 78.6828 92.4997 77.8349 93.7225 76.6558C95.6998 77.5732 97.853 78.0496 100.033 78.0521C101.369 78.0512 102.699 77.8751 103.989 77.5282C107.279 76.6537 110.177 74.6909 112.209 71.9594L115.905 74.0931C116.11 74.2118 116.337 74.2888 116.572 74.3198C116.807 74.3508 117.046 74.3352 117.275 74.2738C117.504 74.2124 117.719 74.1065 117.907 73.962C118.095 73.8176 118.252 73.6375 118.371 73.432L131.757 50.2481C131.876 50.043 131.953 49.8164 131.984 49.5813C132.016 49.3463 132 49.1073 131.939 48.8782C131.878 48.649 131.773 48.4341 131.629 48.2457C131.485 48.0574 131.305 47.8992 131.1 47.7803ZM11.6017 104.283C11.6006 105.445 11.1385 106.56 10.3168 107.381C9.49511 108.203 8.38094 108.665 7.21886 108.666H3.60943V51.1041H7.21886C8.38094 51.1052 9.49511 51.5673 10.3168 52.389C11.1385 53.2107 11.6006 54.3249 11.6017 55.487V104.283ZM23.2035 94.9411H15.2112V61.425H23.2035V94.9411ZM59.1493 74.9696C57.4836 77.7958 55.1107 80.1394 52.2642 81.7699C49.4176 83.4004 46.1955 84.2616 42.9151 84.2686H26.8129V75.5028H42.9151C44.6679 75.499 46.3894 75.0388 47.9103 74.1676C49.4312 73.2964 50.6991 72.0442 51.5891 70.5342L55.8946 63.1998L63.4868 67.5827L59.1493 74.9696ZM83.5325 74.9892L26.9903 42.3455C25.5112 41.4895 24.4321 40.0817 23.9897 38.431C23.5474 36.7803 23.7779 35.0215 24.6308 33.5406L29.8902 24.4273L81.7082 54.3443L97.5949 63.5164L92.3344 72.6338L92.3272 72.6452C92.1899 72.878 92.038 73.1019 91.8724 73.3155V73.3227C90.9207 74.5645 89.5501 75.4181 88.0159 75.7247C86.4817 76.0313 84.8884 75.7699 83.5325 74.9892ZM103.062 74.0415C100.698 74.6806 98.1915 74.5488 95.9077 73.6651L100.727 65.319L109.073 70.1371C107.536 72.0459 105.429 73.4138 103.06 74.0415H103.062ZM116.154 70.0608L104.483 63.3225L100.961 61.2899L61.1159 38.2865L31.697 21.3015L40.0554 6.82462C40.9118 5.34587 42.3197 4.26719 43.9704 3.82523C45.6211 3.38327 47.3797 3.61413 48.8603 4.46715L127.732 50.0048L116.154 70.0608Z" fill="black"/>
<path d="M108.442 60.2515C109.493 60.8619 110.686 61.1839 111.902 61.1848C112.512 61.1842 113.119 61.1038 113.708 60.9455C115.259 60.5301 116.618 59.5897 117.554 58.2847C118.489 56.9796 118.943 55.3905 118.838 53.7883C118.734 52.186 118.076 50.6697 116.979 49.4976C115.881 48.3255 114.412 47.5703 112.82 47.3605C111.228 47.1507 109.612 47.4994 108.249 48.3471C106.885 49.1948 105.857 50.4892 105.341 52.0096C104.825 53.53 104.852 55.1824 105.417 56.6852C105.982 58.1881 107.051 59.4484 108.442 60.2515ZM109.029 52.5758C109.247 52.1972 109.538 51.8657 109.885 51.6002C110.232 51.3347 110.628 51.1405 111.051 51.0289C111.333 50.9532 111.625 50.9147 111.917 50.9144C112.651 50.9145 113.364 51.1568 113.947 51.6037C114.529 52.0505 114.947 52.677 115.137 53.386C115.327 54.095 115.278 54.8468 114.997 55.5248C114.716 56.2029 114.219 56.7693 113.583 57.1361C112.948 57.503 112.209 57.6499 111.481 57.554C110.753 57.458 110.078 57.1247 109.559 56.6056C109.04 56.0866 108.707 55.4108 108.611 54.6831C108.515 53.9554 108.662 53.2165 109.03 52.5809L109.029 52.5758Z" fill="black"/>
<path d="M46.9225 41.9743L32.1342 33.4343C31.9289 33.314 31.7018 33.2354 31.4659 33.2032C31.2301 33.1709 30.9903 33.1856 30.7602 33.2465C30.5301 33.3073 30.3143 33.4131 30.1252 33.5576C29.9362 33.7022 29.7776 33.8827 29.6585 34.0889C29.5395 34.295 29.4625 34.5226 29.4318 34.7586C29.4011 34.9946 29.4174 35.2344 29.4798 35.4641C29.5422 35.6938 29.6493 35.9089 29.7952 36.097C29.941 36.2851 30.1226 36.4425 30.3295 36.5601L45.122 45.099C45.5348 45.3148 46.015 45.3627 46.4623 45.2325C46.9096 45.1024 47.2892 44.8044 47.5218 44.4007C47.7544 43.9971 47.8219 43.5192 47.7102 43.067C47.5985 42.6147 47.3163 42.2232 46.9225 41.9743Z" fill="black"/>
</svg>
