<svg width="119" height="117" viewBox="0 0 119 117" fill="none" xmlns="http://www.w3.org/2000/svg">
<path d="M59.7601 6.82367H55.2067C54.5271 6.82367 54.0967 7.25411 54.0967 7.72988H54.0964V22.4552C54.0964 23.0669 54.8214 23.3839 55.5688 23.3839C56.2937 23.3839 57.0414 23.0669 57.0414 22.4552V17.1994H59.5788C62.5694 17.1994 64.9026 15.7724 64.9026 12.0569V11.9209C64.9026 8.20565 62.6372 6.82367 59.7601 6.82367ZM61.9579 12.2835C61.9579 14.0506 61.0516 14.8887 59.579 14.8887H57.0417V9.40634H59.579C61.0516 9.40634 61.9579 10.2445 61.9579 12.0116V12.2835Z" fill="black"/>
<path d="M88.7859 71.2279L80.8282 68.4154C79.7123 68.0205 78.4501 68.3073 77.6131 69.1454L76.705 70.0549L71.4453 67.2535L71.4449 62.5093C76.5818 59.0655 80.6932 53.1504 81.8058 47.2836C81.8162 47.2288 81.8255 47.1742 81.8355 47.1195C81.8687 46.9348 81.901 46.75 81.9282 46.5652C81.9585 46.3628 81.9852 46.161 82.008 45.9598C82.0168 45.8812 82.0233 45.8029 82.031 45.7245C82.0498 45.5328 82.0651 45.3415 82.077 45.1509C82.0805 45.0931 82.0844 45.0352 82.0872 44.9773C82.0902 44.9194 82.0951 44.8611 82.0975 44.8035C84.6597 44.7995 86.7429 42.7138 86.7429 40.1506V34.413C86.7391 33.1849 86.0605 32.1135 85.0611 31.5452L85.1617 31.3637C85.1636 31.3602 85.165 31.3565 85.1668 31.3532C85.1952 31.3014 85.221 31.2477 85.2442 31.1928C85.2503 31.1782 85.2547 31.1631 85.2605 31.1485C85.277 31.1059 85.2925 31.0632 85.3056 31.019C85.3116 30.9983 85.3163 30.9774 85.3216 30.9567C85.3314 30.9184 85.3407 30.88 85.3479 30.8407C85.3523 30.8168 85.3555 30.7931 85.3588 30.7689C85.3639 30.7324 85.3683 30.6959 85.3711 30.6587C85.373 30.6329 85.3741 30.6074 85.3751 30.5816C85.3758 30.5627 85.3778 30.5444 85.3778 30.5256V21.8016C85.3778 9.78007 75.5975 0 63.5762 0H55.424C43.4025 0 33.6224 9.7803 33.6224 21.8016V30.4921C33.6222 30.5079 33.625 30.5242 33.6252 30.54C33.6257 30.5958 33.6287 30.6515 33.6345 30.7071C33.637 30.7308 33.6389 30.7543 33.6424 30.7782C33.654 30.8565 33.6696 30.9344 33.6919 31.0106C33.6921 31.0118 33.6924 31.0129 33.6926 31.0141C33.694 31.0188 33.6963 31.0227 33.6977 31.0271C33.7207 31.1029 33.75 31.1768 33.7837 31.2493C33.7937 31.2707 33.8037 31.2919 33.8144 31.313C33.823 31.3297 33.8297 31.3472 33.8388 31.3637L33.9394 31.5454C32.94 32.1142 32.2613 33.1866 32.2576 34.4182V40.1506C32.2576 42.7131 34.3399 44.7983 36.9012 44.8035C36.9037 44.8734 36.9095 44.9441 36.913 45.0143C36.9158 45.0696 36.9191 45.1249 36.9223 45.1802C36.9346 45.3836 36.9511 45.5879 36.9716 45.7926C36.9774 45.8524 36.9821 45.9121 36.9886 45.9721C37.0139 46.2012 37.0441 46.4309 37.0792 46.6612C37.0987 46.7914 37.1224 46.9213 37.1452 47.0517C37.1622 47.1488 37.1792 47.246 37.198 47.3431C37.2294 47.5077 37.2631 47.6722 37.2991 47.8368C37.3051 47.8638 37.3116 47.8907 37.3177 47.9177C38.5862 53.5855 42.5937 59.2273 47.5552 62.5561L47.5547 67.2538L42.2964 70.0561L41.3876 69.1459C40.5509 68.308 39.2891 68.0217 38.1725 68.4159L13.6792 77.0719C6.50506 79.6074 1.55704 86.1585 1.0736 93.7617C1.01317 94.713 1.73531 95.5334 2.68661 95.5939C2.72403 95.5962 2.76098 95.5974 2.79794 95.5974C3.70113 95.5974 4.46068 94.895 4.51879 93.9809C4.91437 87.7601 8.96153 82.4007 14.8295 80.327L39.1062 71.7472L40.6362 73.2795C40.6794 73.3228 40.7236 73.3646 40.7671 73.4073C40.7671 73.4073 40.7673 73.4076 40.7675 73.4078C40.7689 73.4092 40.7705 73.4106 40.7719 73.412C45.776 78.354 52.4184 81.0745 59.5 81.0745C66.3558 81.0745 72.7999 78.5246 77.7442 73.878C77.7444 73.8778 77.7447 73.8775 77.7451 73.8773C77.9062 73.726 78.0656 73.5724 78.2234 73.4166C78.2269 73.4134 78.2304 73.4099 78.2339 73.4067C78.2344 73.4062 78.2346 73.4057 78.2351 73.4055C78.2778 73.3632 78.3215 73.3221 78.3643 73.2793L79.8943 71.7469L87.6356 74.4828C88.5344 74.8007 89.5205 74.3294 89.8383 73.4306C90.156 72.5318 89.6849 71.5457 88.7859 71.2279ZM82.1074 36.5999H82.1077C82.4275 36.1976 82.7203 35.7697 82.9741 35.3116L83.2403 34.8312L83.2902 34.7408V40.1504C83.2902 40.8063 82.7612 41.3392 82.1074 41.3492V36.5999ZM36.8923 41.3492C36.2388 41.3394 35.7096 40.8063 35.7096 40.1504V34.7408L36.0259 35.3116C36.2797 35.7697 36.5725 36.1976 36.8923 36.5999V41.3492ZM37.0743 28.272V21.8016C37.0743 11.6836 45.306 3.45216 55.4238 3.45216H63.576C73.694 3.45216 81.9255 11.6838 81.9255 21.8016V28.272C67.2055 24.4647 51.7945 24.4647 37.0743 28.272ZM39.8848 34.7914C39.8827 34.7893 39.8804 34.7875 39.8783 34.7854C39.8276 34.7308 39.7758 34.6773 39.7272 34.6204C39.4704 34.3203 39.2414 33.9919 39.0457 33.6386L37.9243 31.6145C52.086 27.9492 66.9143 27.9492 81.076 31.6145L79.9545 33.6386C79.7216 34.0588 79.4397 34.4414 79.1218 34.7856C79.1199 34.7877 79.1176 34.7893 79.1155 34.7914C78.4865 35.4703 77.7112 35.9868 76.8615 36.3089C76.8591 36.3098 76.857 36.3105 76.8547 36.3115C76.7659 36.3449 76.6762 36.3763 76.5858 36.4054C76.5705 36.4102 76.5549 36.4149 76.5395 36.4198C76.3013 36.4949 76.058 36.5536 75.8116 36.5983C75.7537 36.6085 75.6959 36.6192 75.6373 36.628C75.5845 36.6359 75.5313 36.6424 75.4783 36.6489C75.4046 36.6578 75.3305 36.6654 75.2561 36.6715C75.2136 36.675 75.1711 36.6789 75.1285 36.6817C75.0095 36.6889 74.8901 36.6938 74.7697 36.6938H44.2308C44.1107 36.6938 43.9912 36.6889 43.872 36.6817C43.8292 36.6792 43.7869 36.6752 43.7444 36.6715C43.67 36.6654 43.5959 36.6578 43.5222 36.6489C43.4692 36.6424 43.416 36.6359 43.3632 36.628C43.3049 36.6194 43.247 36.6087 43.1889 36.5983C42.9423 36.5536 42.6989 36.4949 42.4607 36.4198C42.4454 36.4149 42.43 36.4102 42.4147 36.4054C42.3243 36.3761 42.2346 36.3449 42.1455 36.3112C42.1435 36.3105 42.1411 36.3096 42.139 36.3087C41.2891 35.9865 40.5137 35.4703 39.8848 34.7914ZM40.4272 45.6478C40.4245 45.623 40.4217 45.5979 40.4189 45.573C40.3973 45.3771 40.3808 45.1816 40.3687 44.9873C40.3671 44.9615 40.3647 44.9357 40.3633 44.9099C40.3512 44.6933 40.3443 44.4776 40.3443 44.2635V39.2979C40.3506 39.3006 40.3568 39.303 40.3631 39.3058C40.4995 39.3676 40.6371 39.4262 40.7766 39.4815C40.8017 39.4915 40.8268 39.5008 40.8519 39.5105C41.2561 39.6669 41.6719 39.7955 42.097 39.8949C42.1504 39.9075 42.2034 39.9217 42.2569 39.9333C42.3561 39.9547 42.4563 39.9726 42.5567 39.9907C42.649 40.0077 42.7415 40.0239 42.8344 40.0379C42.9214 40.0509 43.0083 40.063 43.0957 40.0737C43.2124 40.0881 43.3295 40.0995 43.4469 40.1095C43.5166 40.1153 43.5863 40.1223 43.6563 40.1267C43.8471 40.1385 44.0384 40.1462 44.2306 40.1462H74.7692C74.9612 40.1462 75.1527 40.1385 75.3435 40.1267C75.4137 40.1223 75.4832 40.1153 75.5529 40.1095C75.6703 40.0995 75.7874 40.0881 75.9041 40.0737C75.9915 40.063 76.0784 40.0511 76.1654 40.0379C76.2583 40.0237 76.3508 40.0074 76.4431 39.9907C76.5433 39.9726 76.6434 39.9547 76.7427 39.9333C76.7964 39.9217 76.8494 39.9075 76.9028 39.8949C77.3279 39.7955 77.7435 39.6669 78.1474 39.5107C78.1725 39.501 78.1979 39.4915 78.2232 39.4817C78.3624 39.4264 78.5003 39.3678 78.6365 39.3062C78.6427 39.3034 78.649 39.3011 78.6553 39.2983V44.2185C78.6553 44.4325 78.6483 44.648 78.6362 44.8646C78.6346 44.8927 78.6323 44.9211 78.6304 44.9494C78.6186 45.1398 78.6021 45.3308 78.5811 45.5226C78.5779 45.5535 78.5744 45.5844 78.5709 45.6153C77.7756 52.4413 71.4007 60.1519 64.912 61.7654L64.6837 61.8223C59.9665 62.9953 58.7723 62.9925 54.0372 61.7986C47.5703 60.1672 41.2156 52.4557 40.4272 45.6478ZM44.9755 72.5395L49.0789 70.3529C50.2396 69.911 51.0066 68.8091 51.0066 67.5517L51.0069 64.4161C51.7274 64.7122 52.4574 64.9598 53.1937 65.1455C55.8621 65.8183 57.6248 66.1535 59.3915 66.1535C61.1379 66.1535 62.888 65.8255 65.5179 65.1715L65.7461 65.1145C66.5026 64.9265 67.2527 64.6741 67.9925 64.3699L67.9927 67.5513C67.9927 68.8084 68.7595 69.9108 69.9204 70.3526L74.025 72.539C65.5913 79.3051 53.4094 79.306 44.9755 72.5395Z" fill="black"/>
<path d="M118.989 110.363L117.926 93.7615C117.443 86.1583 112.495 79.6073 105.321 77.0718L99.5102 75.0181C98.6112 74.7006 97.6251 75.1715 97.3076 76.0705C96.9899 76.9693 97.461 77.9555 98.3598 78.2732L104.17 80.3269C110.038 82.4008 114.085 87.7602 114.481 93.9814L115.544 110.583C115.58 111.152 115.385 111.694 114.996 112.109C114.607 112.523 114.082 112.75 113.516 112.75H99.5026V91.1589C99.5026 90.2055 98.7298 89.4327 97.7764 89.4327C96.823 89.4327 96.0502 90.2055 96.0502 91.1589V112.75H22.9496V91.1589C22.9496 90.2055 22.1768 89.4327 21.2234 89.4327C20.27 89.4327 19.4972 90.2055 19.4972 91.1589V112.75H5.48379C4.91761 112.75 4.39234 112.522 4.0042 112.109C3.61466 111.694 3.41989 111.152 3.45615 110.584L3.78712 105.411C3.84801 104.46 3.12611 103.639 2.17481 103.578C1.22281 103.52 0.402823 104.239 0.341928 105.191L0.0109599 110.364C-0.0850303 111.873 0.453026 113.37 1.48684 114.471C2.51902 115.571 3.97607 116.202 5.48379 116.202H113.516C115.024 116.202 116.481 115.572 117.513 114.471C118.547 113.37 119.085 111.873 118.989 110.363Z" fill="black"/>
<path d="M87.5369 90.4948H75.8045C73.6881 90.4948 71.9663 92.2165 71.9663 94.333V97.5778C71.9663 99.6942 73.6881 101.416 75.8045 101.416H87.5369C89.6534 101.416 91.3752 99.6942 91.3752 97.5778V94.333C91.3752 92.2165 89.6534 90.4948 87.5369 90.4948ZM87.923 97.5778C87.923 97.7907 87.7498 97.9639 87.5369 97.9639H75.8045C75.5916 97.9639 75.4185 97.7907 75.4185 97.5778V94.333C75.4185 94.1201 75.5916 93.9469 75.8045 93.9469H87.5369C87.7498 93.9469 87.923 94.1201 87.923 94.333V97.5778Z" fill="black"/>
</svg>
