<svg width="105" height="111" viewBox="0 0 105 111" fill="none" xmlns="http://www.w3.org/2000/svg">
<path d="M55.523 70.2797C57.4488 70.1298 59.2045 69.1475 60.3441 67.5805L77.6656 43.6341C78.1966 42.8997 78.117 41.8859 77.4732 41.2421C76.8294 40.6001 75.8156 40.5206 75.0812 41.0497L51.1311 58.3768C49.5697 59.5127 48.5873 61.2683 48.4375 63.1942C48.2876 65.12 48.9851 67.0052 50.3485 68.3686C51.5899 69.6118 53.2641 70.3 55.005 70.3C55.177 70.3 55.3491 70.2926 55.523 70.2797ZM52.1264 63.4828C52.1911 62.6373 52.624 61.8659 53.3048 61.3701L67.9143 50.801L57.3489 65.4068C56.8494 66.0931 56.078 66.5242 55.2325 66.5908C54.3908 66.6463 53.5638 66.354 52.9626 65.7527C52.3669 65.1552 52.0598 64.3264 52.1264 63.4828Z" fill="black"/>
<path d="M96.963 36.1934C96.9445 36.1545 96.9445 36.1138 96.9241 36.075C96.9019 36.038 96.8668 36.0177 96.8427 35.9825C94.9724 32.7746 92.7598 29.7906 90.2475 27.0858L94.2213 23.1139L96.8372 25.7298L104.685 17.8803L96.8372 10.0325L88.9876 17.8803L91.6054 20.498L87.6316 24.47C84.9269 21.9577 81.9447 19.7432 78.7349 17.8729C78.6998 17.8488 78.6794 17.8137 78.6424 17.7914C78.6036 17.7692 78.5629 17.7711 78.524 17.7508C72.802 14.4541 66.3732 12.2581 59.519 11.4534V9.25H62.294C64.8451 9.25 66.919 7.17615 66.919 4.625C66.919 2.07385 64.8433 0 62.2921 0H45.6421C43.091 0 41.0171 2.07385 41.0171 4.625C41.0171 7.17615 43.091 9.25 45.6421 9.25H48.4171V11.3886C46.4191 11.6014 44.4248 11.927 42.4527 12.3784C41.4574 12.6059 40.834 13.5993 41.0634 14.5947C41.2909 15.5899 42.2844 16.2153 43.2797 15.984C44.9817 15.5937 46.7003 15.2995 48.4227 15.1016L50.4077 14.948C51.0145 14.9017 51.5732 14.8685 52.1171 14.8425V18.5C52.1171 19.5231 52.9441 20.35 53.9671 20.35C54.9902 20.35 55.8171 19.5231 55.8171 18.5V14.8555C62.775 15.1755 69.3314 17.0441 75.1607 20.1187L73.3366 23.2767C72.826 24.1628 73.1294 25.2932 74.0137 25.8038C74.3042 25.9722 74.6224 26.0517 74.9369 26.0517C75.577 26.0517 76.1986 25.7206 76.5408 25.1267L78.3594 21.9762C84.148 25.6484 89.0653 30.5657 92.7376 36.3543L89.587 38.1729C88.7046 38.6835 88.4012 39.8139 88.9136 40.7C89.2577 41.2938 89.8775 41.625 90.5176 41.625C90.8321 41.625 91.1503 41.5454 91.4407 41.3771L94.5987 39.553C97.7159 45.4656 99.59 52.1293 99.8693 59.1982H96.2156C95.1925 59.1982 94.3656 60.0251 94.3656 61.0482C94.3656 62.0712 95.1925 62.8982 96.2156 62.8982H99.8693C99.59 69.967 97.7159 76.6307 94.5987 82.5433L91.4407 80.7192C90.5564 80.2086 89.4242 80.5083 88.9136 81.3963C88.403 82.2825 88.7064 83.4128 89.5907 83.9234L92.7413 85.742C89.069 91.5306 84.1517 96.4479 78.3631 100.12L76.5445 96.9696C76.0321 96.0816 74.898 95.7801 74.0174 96.2925C73.1313 96.8031 72.8279 97.9353 73.3403 98.8196L75.1644 101.978C69.3351 105.052 62.7787 106.921 55.8208 107.241V103.6C55.8208 102.577 54.9939 101.75 53.9708 101.75C52.9478 101.75 52.1208 102.577 52.1208 103.6V107.256C49.1664 107.154 46.2027 106.784 43.2852 106.114C42.2899 105.876 41.2965 106.508 41.0689 107.504C40.8395 108.499 41.463 109.492 42.4583 109.72C46.1509 110.571 49.923 111 53.6656 111C53.7562 111 53.8432 110.994 53.9338 110.993C53.9468 110.993 53.956 111 53.9671 111C53.9819 111 53.9949 110.991 54.0097 110.991C62.9026 110.93 71.2461 108.528 78.4648 104.381C78.5222 104.355 78.5832 104.342 78.6387 104.309C78.6757 104.286 78.6961 104.251 78.7312 104.227C86.2034 99.8723 92.4471 93.6359 96.8113 86.1693C96.8464 86.1193 96.8908 86.0805 96.9223 86.025C96.9445 85.9862 96.9426 85.9454 96.9611 85.9066C101.187 78.5806 103.616 70.0965 103.616 61.05C103.616 52.0035 101.187 43.5194 96.963 36.1934ZM96.8353 15.2644L99.4512 17.8803L96.8353 20.498L94.2176 17.8803L96.8353 15.2644ZM52.1171 11.1389V5.55H45.6421C45.1334 5.55 44.7171 5.13375 44.7171 4.625C44.7171 4.11625 45.1334 3.7 45.6421 3.7H62.2921C62.8009 3.7 63.2171 4.11625 63.2171 4.625C63.2171 5.13375 62.8009 5.55 62.2921 5.55H55.8171V11.1389C55.1733 11.113 54.5591 11.1 53.9671 11.1C53.9153 11.1 53.8561 11.1037 53.8043 11.1037C53.7581 11.1037 53.7118 11.1 53.6656 11.1C53.3622 11.1 53.0588 11.1203 52.7554 11.1259C52.5408 11.1314 52.3391 11.1296 52.1171 11.1389Z" fill="black"/>
<path d="M37.317 25.9H28.067C27.044 25.9 26.217 26.727 26.217 27.75C26.217 28.7731 27.044 29.6 28.067 29.6H37.317C38.3401 29.6 39.167 28.7731 39.167 27.75C39.167 26.727 38.3401 25.9 37.317 25.9Z" fill="black"/>
<path d="M37.317 38.85H18.817C17.794 38.85 16.967 39.6769 16.967 40.7C16.967 41.723 17.794 42.55 18.817 42.55H37.317C38.3401 42.55 39.167 41.723 39.167 40.7C39.167 39.6769 38.3401 38.85 37.317 38.85Z" fill="black"/>
<path d="M37.317 51.8H9.56704C8.54399 51.8 7.71704 52.6269 7.71704 53.65C7.71704 54.673 8.54399 55.5 9.56704 55.5H37.317C38.3401 55.5 39.167 54.673 39.167 53.65C39.167 52.6269 38.3401 51.8 37.317 51.8Z" fill="black"/>
<path d="M37.3171 64.75H2.16714C1.14409 64.75 0.317139 65.577 0.317139 66.6C0.317139 67.6231 1.14409 68.45 2.16714 68.45H37.3171C38.3402 68.45 39.1671 67.6231 39.1671 66.6C39.1671 65.577 38.3402 64.75 37.3171 64.75Z" fill="black"/>
<path d="M37.3172 77.7H13.2672C12.2442 77.7 11.4172 78.5269 11.4172 79.5499C11.4172 80.573 12.2442 81.3999 13.2672 81.3999H37.3172C38.3403 81.3999 39.1672 80.573 39.1672 79.5499C39.1672 78.5269 38.3403 77.7 37.3172 77.7Z" fill="black"/>
<path d="M37.3171 90.65H24.3671C23.344 90.65 22.5171 91.477 22.5171 92.5C22.5171 93.5231 23.344 94.35 24.3671 94.35H37.3171C38.3401 94.35 39.1671 93.5231 39.1671 92.5C39.1671 91.477 38.3401 90.65 37.3171 90.65Z" fill="black"/>
</svg>
