<svg width="166" height="73" viewBox="0 0 166 73" fill="none" xmlns="http://www.w3.org/2000/svg">
<path fill-rule="evenodd" clip-rule="evenodd" d="M125.947 51.1L166 0L138.464 73L0 51.7213L125.947 51.1Z" fill="#0066FF"/>
<path fill-rule="evenodd" clip-rule="evenodd" d="M25.084 28.3993C24.7122 27.2349 24.102 26.1594 23.2918 25.2401C22.5572 24.4279 21.6462 23.7922 20.6277 23.3809C19.5804 22.9654 18.4616 22.7565 17.3338 22.7658C16.3568 22.7689 15.3841 22.8958 14.4394 23.1433C13.4353 23.4064 12.4762 23.8163 11.5936 24.3594L12.7077 27.7702C13.3029 27.4473 13.9273 27.1805 14.5727 26.9734C15.4158 26.6951 16.2998 26.5581 17.1883 26.5681C18.4798 26.5681 19.5011 26.9222 20.252 27.6304C21.003 28.3387 21.4753 29.4384 21.6689 30.9294H14.7182V34.6206H21.7417C21.548 36.1303 21.0636 37.2719 20.2885 38.0454C19.5134 38.8189 18.4801 39.2056 17.1885 39.2056C16.6966 39.2082 16.2057 39.1613 15.7233 39.0658C15.295 38.9817 14.8739 38.8648 14.4638 38.7163C14.1117 38.5886 13.7679 38.4392 13.4345 38.269C13.1276 38.1109 12.8612 37.9758 12.6353 37.8636L11.4243 41.3583C12.2956 41.8774 13.2267 42.2904 14.1975 42.5885C15.1924 42.8773 16.2248 43.0186 17.2612 43.0078C18.3849 43.0145 19.5007 42.8203 20.5551 42.4347C21.5863 42.0542 22.5118 41.4362 23.2555 40.6314C24.0736 39.7243 24.6922 38.6579 25.072 37.5002C25.516 36.233 25.738 34.7047 25.738 32.9152C25.7375 31.1813 25.5195 29.676 25.084 28.3993ZM39.4946 30.6498H33.149V23.2411H29.3708V42.6156H33.149V34.3961H39.4946V42.6156H43.2728V23.2411H39.4946V30.6498ZM60.0082 42.6156V38.954H51.8947V34.2851H58.6035V30.7065H51.8947V26.9043H59.4515V23.2419H48.1166V42.6164H60.0082V42.6156ZM66.3171 23.1293C65.4573 23.201 64.6036 23.3317 63.762 23.5207V42.6156H67.5401V35.5424H69.4051C69.729 35.9897 70.0531 36.4883 70.3776 37.0381C70.7021 37.5879 71.0304 38.1704 71.3624 38.7855C71.6945 39.4005 72.0185 40.0342 72.3344 40.6866C72.6504 41.3389 72.9624 41.9819 73.2707 42.6156H77.495C77.2044 41.9075 76.8895 41.1852 76.5504 40.4489C76.2114 39.7126 75.8602 39.0044 75.4969 38.3242C75.1336 37.6441 74.7663 36.9917 74.395 36.3671C74.0236 35.7426 73.6684 35.1881 73.3293 34.7037C74.2846 34.2725 75.0956 33.5788 75.6665 32.7047C76.2072 31.8568 76.4776 30.7525 76.4779 29.3918C76.4779 27.2111 75.8078 25.6035 74.4675 24.5691C73.1273 23.5347 71.1977 23.0175 68.6787 23.0175C67.9842 23.018 67.197 23.0553 66.3171 23.1293ZM71.6454 27.3369C72.2668 27.7379 72.5777 28.4136 72.5779 29.3638C72.5779 30.3519 72.2711 31.0509 71.6574 31.4606C71.0438 31.8703 70.0269 32.0754 68.6065 32.0757H67.5408V26.8197C67.7347 26.8013 67.9406 26.7827 68.1585 26.7638C68.3763 26.7448 68.6226 26.7355 68.8971 26.7358C70.1076 26.7358 71.0237 26.9362 71.6454 27.3369ZM83.6944 26.9315H91.3719V23.2411H79.9161V42.6156H83.6944V26.9323V26.9315ZM97.4507 42.6156C98.5323 40.3979 99.7029 38.2079 100.962 36.0456C102.189 33.9335 103.532 31.8895 104.983 29.923V42.6156H108.713V23.2411H105.637C105.105 23.8562 104.515 24.611 103.869 25.5057C103.223 26.4003 102.565 27.3555 101.895 28.3713C101.225 29.3874 100.559 30.4405 99.8973 31.5305C99.2355 32.6205 98.6138 33.6689 98.0323 34.6757V23.2411H94.2779V42.6156H97.4507ZM121.476 26.7925C121.702 26.7925 121.912 26.8018 122.106 26.8204V32.0485H120.532C119.337 32.0485 118.437 31.8621 117.831 31.4893C117.226 31.1166 116.924 30.4363 116.924 29.4485C116.907 28.9947 117.016 28.5449 117.239 28.1484C117.439 27.8129 117.722 27.5338 118.062 27.3377C118.427 27.1327 118.824 26.9909 119.237 26.9183C119.696 26.833 120.162 26.7909 120.629 26.7925H121.477H121.476ZM117.565 23.4516C116.674 23.6867 115.842 24.1006 115.119 24.6677C114.449 25.2078 113.918 25.8976 113.569 26.6807C113.189 27.5636 113.003 28.5166 113.024 29.4764C113.013 30.1605 113.099 30.8427 113.278 31.5033C113.425 32.0403 113.65 32.5534 113.944 33.027C114.202 33.4362 114.516 33.8079 114.876 34.1313C115.196 34.4198 115.55 34.6686 115.93 34.8722C115.655 35.3012 115.357 35.7998 115.034 36.3679C114.711 36.9361 114.38 37.5558 114.041 38.2271C113.702 38.8981 113.367 39.6063 113.036 40.3519C112.705 41.0974 112.394 41.8522 112.103 42.6164H116.085C116.636 41.2932 117.232 40.0025 117.872 38.7443C118.513 37.4861 119.1 36.4377 119.636 35.5991C119.868 35.6333 120.103 35.652 120.338 35.655H122.106V42.6164H125.885V23.6605C124.998 23.4371 124.095 23.2783 123.184 23.1852C122.392 23.0989 121.596 23.0522 120.799 23.0454C119.707 23.0322 118.619 23.1686 117.565 23.4508V23.4516Z" fill="white"/>
</svg>
