<svg width="166" height="73" viewBox="0 0 166 73" fill="none" xmlns="http://www.w3.org/2000/svg">
<path fill-rule="evenodd" clip-rule="evenodd" d="M125.947 51.1L166 0L138.464 73L0 51.7213L125.947 51.1Z" fill="white"/>
<path fill-rule="evenodd" clip-rule="evenodd" d="M25.0838 28.3994C24.712 27.235 24.1018 26.1594 23.2916 25.2402C22.5569 24.428 21.646 23.7923 20.6274 23.381C19.5802 22.9655 18.4614 22.7565 17.3336 22.7659C16.3565 22.769 15.3839 22.8959 14.4391 23.1434C13.4351 23.4065 12.476 23.8164 11.5934 24.3595L12.7075 27.7703C13.3027 27.4474 13.9271 27.1806 14.5724 26.9735C15.4156 26.6952 16.2996 26.5582 17.1881 26.5681C18.4796 26.5681 19.5008 26.9223 20.2518 27.6305C21.0028 28.3388 21.4751 29.4384 21.6687 30.9295H14.7179V34.6207H21.7414C21.5477 36.1304 21.0633 37.272 20.2883 38.0454C19.5132 38.8189 18.4798 39.2057 17.1882 39.2057C16.6963 39.2082 16.2054 39.1614 15.723 39.0659C15.2948 38.9817 14.8737 38.8649 14.4635 38.7164C14.1114 38.5887 13.7676 38.4393 13.4342 38.2691C13.1274 38.111 12.861 37.9759 12.635 37.8637L11.4241 41.3584C12.2954 41.8775 13.2265 42.2905 14.1973 42.5885C15.1921 42.8774 16.2245 43.0187 17.261 43.0079C18.3847 43.0145 19.5004 42.8204 20.5549 42.4348C21.5861 42.0543 22.5116 41.4363 23.2553 40.6315C24.0733 39.7244 24.692 38.658 25.0717 37.5003C25.5158 36.2331 25.7378 34.7047 25.7378 32.9153C25.7373 31.1814 25.5193 29.6761 25.0838 28.3994ZM39.4943 30.6499H33.1488V23.2412H29.3705V42.6157H33.1488V34.3962H39.4943V42.6157H43.2726V23.2412H39.4943V30.6499ZM60.0079 42.6157V38.9541H51.8944V34.2852H58.6033V30.7066H51.8944V26.9044H59.4513V23.242H48.1163V42.6165H60.0079V42.6157ZM66.3169 23.1294C65.4571 23.201 64.6033 23.3318 63.7618 23.5208V42.6157H67.5399V35.5425H69.4049C69.7287 35.9898 70.0529 36.4884 70.3774 37.0382C70.7019 37.588 71.0301 38.1705 71.3621 38.7855C71.6942 39.4006 72.0182 40.0343 72.3342 40.6866C72.6501 41.339 72.9622 41.982 73.2704 42.6157H77.4947C77.2041 41.9076 76.8893 41.1853 76.5502 40.449C76.2111 39.7127 75.8599 39.0044 75.4966 38.3242C75.1333 37.6442 74.766 36.9918 74.3947 36.3672C74.0234 35.7426 73.6682 35.1881 73.3291 34.7038C74.2843 34.2725 75.0953 33.5789 75.6662 32.7048C76.2069 31.8569 76.4774 30.7525 76.4776 29.3918C76.4776 27.2112 75.8075 25.6036 74.4673 24.5692C73.1271 23.5348 71.1975 23.0175 68.6784 23.0175C67.984 23.0181 67.1968 23.0553 66.3169 23.1294ZM71.6451 27.337C72.2666 27.738 72.5774 28.4136 72.5776 29.3639C72.5776 30.352 72.2708 31.051 71.6572 31.4607C71.0436 31.8704 70.0266 32.0754 68.6063 32.0758H67.5405V26.8198C67.7344 26.8014 67.9403 26.7828 68.1582 26.7638C68.3761 26.7449 68.6223 26.7356 68.8968 26.7359C70.1074 26.7359 71.0235 26.9362 71.6451 27.337ZM83.6942 26.9316H91.3716V23.2412H79.9159V42.6157H83.6942V26.9324V26.9316ZM97.4504 42.6157C98.532 40.398 99.7026 38.208 100.962 36.0457C102.189 33.9335 103.531 31.8896 104.983 29.923V42.6157H108.713V23.2412H105.637C105.104 23.8563 104.515 24.6111 103.869 25.5058C103.223 26.4004 102.565 27.3556 101.895 28.3714C101.225 29.3875 100.559 30.4406 99.8971 31.5306C99.2353 32.6206 98.6136 33.669 98.0321 34.6758V23.2412H94.2776V42.6157H97.4504ZM121.476 26.7926C121.702 26.7926 121.912 26.8019 122.106 26.8205V32.0486H120.531C119.336 32.0486 118.436 31.8622 117.831 31.4894C117.226 31.1167 116.923 30.4364 116.924 29.4485C116.907 28.9947 117.015 28.545 117.238 28.1485C117.439 27.813 117.722 27.5339 118.062 27.3377C118.427 27.1328 118.824 26.991 119.236 26.9184C119.696 26.8331 120.162 26.791 120.629 26.7926H121.477H121.476ZM117.565 23.4517C116.674 23.6868 115.841 24.1007 115.118 24.6678C114.449 25.2079 113.918 25.8977 113.568 26.6807C113.189 27.5636 113.003 28.5167 113.023 29.4765C113.013 30.1606 113.099 30.8427 113.278 31.5034C113.425 32.0404 113.649 32.5535 113.944 33.0271C114.201 33.4363 114.515 33.808 114.876 34.1314C115.196 34.4199 115.55 34.6687 115.93 34.8723C115.655 35.3013 115.356 35.7998 115.034 36.368C114.711 36.9362 114.38 37.5559 114.041 38.2272C113.701 38.8982 113.366 39.6064 113.035 40.3519C112.705 41.0975 112.394 41.8523 112.103 42.6165H116.084C116.636 41.2933 117.231 40.0026 117.872 38.7444C118.512 37.4862 119.1 36.4378 119.635 35.5992C119.868 35.6334 120.103 35.6521 120.338 35.6551H122.106V42.6165H125.885V23.6606C124.997 23.4372 124.095 23.2784 123.184 23.1853C122.392 23.099 121.596 23.0523 120.799 23.0455C119.707 23.0323 118.619 23.1687 117.565 23.4509V23.4517Z" fill="white"/>
</svg>
